<svg xmlns="http://www.w3.org/2000/svg" xmlns:xlink="http://www.w3.org/1999/xlink" width="640" height="75" viewBox="0 0 640 75">
  <defs>
    <clipPath id="clip-path">
      <rect id="Rectángulo_529" data-name="Rectángulo 529" width="106.81" height="17.703" transform="translate(0 0)" fill="#fff"/>
    </clipPath>
    <clipPath id="clip-path-2">
      <rect id="Rectángulo_598" data-name="Rectángulo 598" width="16" height="16" transform="translate(0 0)" fill="#02387b"/>
    </clipPath>
  </defs>
  <g id="Grupo_726" data-name="Grupo 726" transform="translate(-621 -1587)">
    <rect id="Rectángulo_597" data-name="Rectángulo 597" width="640" height="44" transform="translate(621 1587)" fill="#d8d8d8"/>
    <rect id="Rectángulo_599" data-name="Rectángulo 599" width="640" height="31" transform="translate(621 1631)" fill="#3a84e7"/>
    <text id="Este_es_un_producto_creado_por_" data-name="Este es un producto creado por " transform="translate(978.785 1650.5)" fill="#fff" font-size="11" font-family="Quasimoda-Italic, Quasimoda" font-style="italic"><tspan x="0" y="0">Este es un producto creado por </tspan></text>
    <g id="Grupo_658" data-name="Grupo 658" transform="translate(1137.19 1638.648)">
      <g id="Grupo_657" data-name="Grupo 657" transform="translate(0 0)" clip-path="url(#clip-path)">
        <path id="Trazado_83" data-name="Trazado 83" d="M14.01,14.795l.743.658a8.537,8.537,0,0,1-5.933,2.29,8.5,8.5,0,0,1-6.243-2.577A8.5,8.5,0,0,1,0,8.923,8.514,8.514,0,0,1,2.577,2.691,8.484,8.484,0,0,1,8.82.1a8.51,8.51,0,0,1,5.933,2.3l-.743.658A7.586,7.586,0,0,0,8.82,1.1,7.555,7.555,0,0,0,3.283,3.392a7.524,7.524,0,0,0-2.3,5.531,7.539,7.539,0,0,0,2.3,5.543A7.555,7.555,0,0,0,8.82,16.757a7.586,7.586,0,0,0,5.19-1.962" transform="translate(0 -0.04)" fill="#fff"/>
        <path id="Trazado_84" data-name="Trazado 84" d="M26.211,4.887A5.687,5.687,0,0,1,30.4,6.617a5.719,5.719,0,0,1,1.724,4.191A5.709,5.709,0,0,1,30.4,14.98a5.9,5.9,0,0,1-8.357,0A5.689,5.689,0,0,1,20.3,10.808a5.7,5.7,0,0,1,1.736-4.191,5.7,5.7,0,0,1,4.173-1.73M22.757,7.348a4.728,4.728,0,0,0-1.431,3.46,4.877,4.877,0,0,0,4.885,4.873A4.877,4.877,0,0,0,31.1,10.808a4.726,4.726,0,0,0-1.431-3.46,4.867,4.867,0,0,0-6.907,0" transform="translate(-7.84 -1.887)" fill="#fff"/>
        <path id="Trazado_85" data-name="Trazado 85" d="M60.519,10.259a3.937,3.937,0,0,0-.036.548,4.885,4.885,0,0,0,8.345,3.436q.244-.244.463-.512l1.036.365a5.15,5.15,0,0,1-.767.877,5.9,5.9,0,0,1-8.363.006,5.687,5.687,0,0,1-1.736-4.172A5.694,5.694,0,0,1,61.2,6.616a5.918,5.918,0,0,1,8.363,0,5,5,0,0,1,1.522,3.642Zm.183-.987h9.283a4.593,4.593,0,0,0-1.157-1.925,4.882,4.882,0,0,0-6.92,0A4.968,4.968,0,0,0,60.7,9.272" transform="translate(-22.962 -1.887)" fill="#fff"/>
        <path id="Trazado_86" data-name="Trazado 86" d="M89.849,13.865l1.023.377a6.568,6.568,0,0,1-.633.731,5.9,5.9,0,0,1-8.363.006A5.7,5.7,0,0,1,80.14,10.8a5.685,5.685,0,0,1,1.736-4.179,5.919,5.919,0,0,1,8.363,0,6.568,6.568,0,0,1,.633.731l-1.023.377q-.158-.194-.341-.39a4.885,4.885,0,0,0-8.333,3.46,4.705,4.705,0,0,0,1.431,3.453,4.867,4.867,0,0,0,6.9-.006,4.782,4.782,0,0,0,.341-.377" transform="translate(-30.948 -1.887)" fill="#fff"/>
        <path id="Trazado_87" data-name="Trazado 87" d="M102.161,7.357V0h.962V7.357h15.168v.975H103.124v9.363h-.962V8.332H97.828V7.357Z" transform="translate(-37.779 0)" fill="#fff"/>
        <path id="Trazado_88" data-name="Trazado 88" d="M118.85,16.716a5.688,5.688,0,0,1-4.173-1.736,5.687,5.687,0,0,1-1.736-4.172,5.7,5.7,0,0,1,1.736-4.191,5.918,5.918,0,0,1,8.363,0,5,5,0,0,1,1.522,3.642H114a3.937,3.937,0,0,0-.036.548,4.885,4.885,0,0,0,8.345,3.436q.244-.244.463-.512l1.036.365a5.147,5.147,0,0,1-.767.877,5.686,5.686,0,0,1-4.191,1.743m-4.666-7.444h9.283a4.593,4.593,0,0,0-1.157-1.925,4.882,4.882,0,0,0-6.92,0,4.968,4.968,0,0,0-1.206,1.925" transform="translate(-43.615 -1.887)" fill="#fff"/>
        <path id="Trazado_89" data-name="Trazado 89" d="M138.125,7.075a3.862,3.862,0,0,0-2.035,1.474,3.586,3.586,0,0,0-1,2.339v6.067h-.974V6.38h.974V8.67a4.209,4.209,0,0,1,2.5-2.375Z" transform="translate(-51.793 -2.431)" fill="#fff"/>
        <path id="Trazado_90" data-name="Trazado 90" d="M154.613,16.41h-.975V14.255a7.274,7.274,0,0,1-.61.718,5.9,5.9,0,0,1-8.363.007,5.69,5.69,0,0,1-1.736-4.173,5.7,5.7,0,0,1,1.736-4.191,5.917,5.917,0,0,1,8.363,0,7.211,7.211,0,0,1,.61.719v-1.5h.975Zm-.975-4.653V9.844a4.906,4.906,0,0,0-4.8-3.935,4.7,4.7,0,0,0-3.453,1.437,4.727,4.727,0,0,0-1.431,3.46,4.892,4.892,0,0,0,9.685.95" transform="translate(-55.196 -1.887)" fill="#fff"/>
        <path id="Trazado_91" data-name="Trazado 91" d="M49.152,6.569A4.112,4.112,0,0,0,46.158,5.4v0h-.025v0A4.053,4.053,0,0,0,41.94,9.523V16.6H42.9V9.62a3.1,3.1,0,0,1,.974-2.3,3.2,3.2,0,0,1,4.537,0,3.1,3.1,0,0,1,.975,2.3V16.6h.962V9.523a4.091,4.091,0,0,0-1.2-2.954" transform="translate(-16.196 -2.084)" fill="#fff"/>
        <rect id="Rectángulo_528" data-name="Rectángulo 528" width="5.795" height="0.966" transform="translate(33.344 7.382)" fill="#fff"/>
        <path id="Trazado_92" data-name="Trazado 92" d="M142.373,6.011a5.882,5.882,0,0,0-6.932,1.646,5.647,5.647,0,0,0-1.327,3.785l.991-.06a4.819,4.819,0,0,1,1.134-3.075,4.693,4.693,0,0,1,3.287-1.757,4.88,4.88,0,0,1,1.91.177Z" transform="translate(-51.791 -2.126)" fill="#fff"/>
        <path id="Trazado_93" data-name="Trazado 93" d="M170.159,20.207a2.482,2.482,0,0,1-3.506-3.514,2.48,2.48,0,0,1,4.233,1.752,2.408,2.408,0,0,1-.727,1.762m-3.266-3.27a2.163,2.163,0,0,0,0,3.033,2.13,2.13,0,0,0,3.023,0,2.158,2.158,0,0,0,0-3.033,2.127,2.127,0,0,0-3.02,0m1.462.139a2.09,2.09,0,0,1,.743.1.679.679,0,0,1,.423.691.6.6,0,0,1-.265.538,1.046,1.046,0,0,1-.394.132.655.655,0,0,1,.467.267.749.749,0,0,1,.147.422v.2c0,.063,0,.13.008.2a.4.4,0,0,0,.023.141l.017.034h-.449l-.007-.027c0-.008,0-.02-.008-.031l-.009-.087v-.216a.662.662,0,0,0-.258-.622,1.146,1.146,0,0,0-.533-.088h-.378V19.8H167.4V17.075Zm.518.429a1.242,1.242,0,0,0-.581-.1h-.41v.988h.434a1.286,1.286,0,0,0,.457-.062.49.49,0,0,0,.1-.824" transform="translate(-64.076 -6.167)" fill="#fff"/>
      </g>
    </g>
    <g id="Grupo_2885" data-name="Grupo 2885">
      <rect id="Rectángulo_1750" data-name="Rectángulo 1750" width="168" height="27" transform="translate(650 1596)" fill="#d8d8d8"/>
      <g id="Grupo_2884" data-name="Grupo 2884">
        <text id="www.datamax.co" transform="translate(655 1600)" fill="#02387b" font-size="16" font-family="Quasimoda-Bold, Quasimoda" font-weight="700"><tspan x="-61" y="15">www.datamax.co</tspan></text>
        <g id="Grupo_713" data-name="Grupo 713" transform="translate(655 1603)">
          <g id="Grupo_712" data-name="Grupo 712" transform="translate(0 0)" clip-path="url(#clip-path-2)">
            <path id="Trazado_984" data-name="Trazado 984" d="M8,0a8,8,0,1,0,8,8.014A8.018,8.018,0,0,0,8,0m6.1,4.95c-1.054,0-2.085,0-3.116,0-.16,0-.164-.1-.18-.21a11.706,11.706,0,0,0-.764-2.853c-.064-.153-.14-.3-.211-.452,1.27.013,3.8,2.078,4.271,3.513M6.844,2.83A5.93,5.93,0,0,1,7.51,1.5c.313-.478.633-.46.983-.006a5.394,5.394,0,0,1,.865,1.97c.127.478.218.966.33,1.471H6.276c.191-.724.337-1.431.568-2.108M9.813,6.114a21.362,21.362,0,0,1,0,3.772H6.185a21.409,21.409,0,0,1,0-3.772ZM6.128,1.425c-.2.581-.431,1.171-.6,1.778C5.379,3.712,5.3,4.24,5.2,4.762c-.023.122-.052.192-.2.192-1.006-.006-2.013,0-3.019-.005a.288.288,0,0,1-.068-.017A6.6,6.6,0,0,1,6.128,1.425M1.414,6.117H4.988V9.879H1.416a6.735,6.735,0,0,1,0-3.762m.444,4.93c1.1,0,2.129,0,3.16,0,.159,0,.164.1.181.209a11.5,11.5,0,0,0,.784,2.9c.061.141.129.28.213.459a6.974,6.974,0,0,1-4.338-3.564M9.15,13.167a5.971,5.971,0,0,1-.665,1.327c-.313.477-.634.46-.984.005a5.4,5.4,0,0,1-.865-1.969c-.127-.478-.218-.966-.33-1.471H9.718c-.19.724-.337,1.431-.568,2.108m.643,1.447a11.221,11.221,0,0,0,1.01-3.373c.011-.071.105-.185.162-.186,1.038-.012,2.075-.009,3.167-.009a6.96,6.96,0,0,1-4.339,3.567m1.213-4.73V6.115h3.573a6.76,6.76,0,0,1,0,3.769Z" transform="translate(0 -0.001)" fill="#02387b"/>
          </g>
        </g>
      </g>
    </g>
  </g>
</svg>
