<svg xmlns="http://www.w3.org/2000/svg" xmlns:xlink="http://www.w3.org/1999/xlink" width="640" height="145" viewBox="0 0 640 145">
  <defs>
    <clipPath id="clip-path">
      <rect id="Rectángulo_1760" data-name="Rectángulo 1760" width="27.785" height="27.805" fill="#3a84e7"/>
    </clipPath>
    <clipPath id="clip-path-2">
      <rect id="Rectángulo_1761" data-name="Rectángulo 1761" width="30.677" height="23.824" fill="#3a84e7"/>
    </clipPath>
    <clipPath id="clip-path-3">
      <rect id="Rectángulo_1762" data-name="Rectángulo 1762" width="25.861" height="25.849" fill="#3a84e7"/>
    </clipPath>
  </defs>
  <g id="Grupo_2906" data-name="Grupo 2906" transform="translate(-621 -1105)">
    <rect id="Rectángulo_588" data-name="Rectángulo 588" width="640" height="145" transform="translate(621 1105)" fill="#02387b"/>
    <circle id="Elipse_2" data-name="Elipse 2" cx="23" cy="23" r="23" transform="translate(745 1153)" fill="#fff"/>
    <circle id="Elipse_3" data-name="Elipse 3" cx="23" cy="23" r="23" transform="translate(917 1153)" fill="#fff"/>
    <circle id="Elipse_5" data-name="Elipse 5" cx="23" cy="23" r="23" transform="translate(1091 1156)" fill="#fff"/>
    <text id="Agenda" transform="translate(708 1204)" fill="#fff" font-size="12" font-family="Quasimoda-Regular, Quasimoda"><tspan x="-19" y="11">Agenda</tspan></text>
    <text id="Archivo" transform="translate(881 1204)" fill="#fff" font-size="12" font-family="Quasimoda-Regular, Quasimoda"><tspan x="-20" y="11">Archivo</tspan></text>
    <text id="Solicitudes" transform="translate(1056 1204)" fill="#fff" font-size="12" font-family="Quasimoda-Regular, Quasimoda"><tspan x="-28" y="11">Solicitudes</tspan></text>
    <g id="Grupo_2894" data-name="Grupo 2894" transform="translate(754.108 1162.598)">
      <g id="Grupo_2893" data-name="Grupo 2893" clip-path="url(#clip-path)">
        <path id="Trazado_4088" data-name="Trazado 4088" d="M25.489,8.069a2.23,2.23,0,0,0,2.288-2.3q.015-1.747,0-3.494A2.216,2.216,0,0,0,25.506.009q-3.538-.017-7.077,0a2.227,2.227,0,0,0-2.3,2.288c-.01.881,0,1.762,0,2.642v.42H12.565c-.076-.715.221-1.644-.895-1.749a2.8,2.8,0,0,0-1.424.183c-.635.31-.282,1.048-.428,1.565h-3.5a6.469,6.469,0,0,0-.132-1.21c-.139-.462-.555-.584-1.01-.556-.438.027-.9-.11-1.287.23-.475.423-.222,1.011-.337,1.561H2.527A2.27,2.27,0,0,0,0,7.892v13.8A2.274,2.274,0,0,0,2.526,24.2H14.34c.031.115.055.185.069.257a3.99,3.99,0,0,0,3.8,3.317q2.845.053,5.689,0a4.029,4.029,0,0,0-.112-8.055c-.455-.007-.912,0-1.356,0V8.072c1.037,0,2.05.008,3.061,0m-14.7-3.564h.829V7.149h-.829Zm-6.287,0h.84V7.155h-.84Zm9.808,18.8h-.468q-5.666,0-11.334,0C1.4,23.306.9,22.806.9,21.7V9.87H17.005V8.982H.9c0-.528-.018-.976,0-1.422A1.321,1.321,0,0,1,2.213,6.285c.433-.018.865,0,1.325,0,.155.548-.2,1.3.468,1.613a2.818,2.818,0,0,0,1.389.16c1.115-.108.823-1.034.9-1.776H9.81c.152.545-.2,1.278.437,1.592a2.8,2.8,0,0,0,1.381.185c1.155-.08.864-1.026.938-1.777H16.14a2.422,2.422,0,0,0,1.778,1.76v2.148l3.556-2.023V19.686h-.863v-.466q0-3.652,0-7.3c0-.867-.291-1.156-1.16-1.156H2.963c-.868,0-1.17.3-1.17,1.145q0,4.682,0,9.366c0,.836.3,1.141,1.129,1.141H14.314Zm2.744-4.455H19.69V19.7H17.057Zm-.011-3.586h2.631V17.9H17.046Zm.013-3.588H19.69V14.31H17.059Zm-3.579.011H16.11v2.63H13.479ZM16.1,17.907H13.464V15.276H16.1ZM9.887,15.265h2.637V17.9H9.887ZM12.508,21.5H9.887V18.851h2.621ZM9.88,11.691h2.647v2.628H9.88ZM6.3,15.276H8.93v2.633H6.3Zm2.634,6.2H6.284V18.861H8.93ZM6.3,11.694H8.929v2.631H6.3Zm-.943,9.787H2.72V18.848H5.355ZM2.721,15.269H5.354V17.91H2.721Zm0-3.588H5.357v2.631H2.718ZM14.34,19.71v1.784h-.868V18.85h2.637v.86Zm9.561.927a3.123,3.123,0,0,1,.007,6.239c-1.894.048-3.792.041-5.685,0A3.017,3.017,0,0,1,15.272,24.1c-.1-1.138-.018-2.29-.018-3.475,2.918,0,5.784-.031,8.648.011M21.777,7.183a1.627,1.627,0,0,0-.711.187c-.733.392-1.448.815-2.258,1.276V7.175c-.157,0-.287,0-.416,0a1.33,1.33,0,0,1-1.363-1.36q-.021-1.77,0-3.539A1.314,1.314,0,0,1,18.383.908q3.559-.017,7.118,0A1.322,1.322,0,0,1,26.878,2.3q.017,1.747,0,3.494a1.327,1.327,0,0,1-1.385,1.382c-1.239.011-2.478-.007-3.716.011" transform="translate(0 0)" fill="#3a84e7"/>
        <path id="Trazado_4089" data-name="Trazado 4089" d="M116.2,159.536a1.343,1.343,0,1,0,1.316,1.357,1.35,1.35,0,0,0-1.316-1.357m.479,1.462c-.18.108-.371.31-.538.294a.61.61,0,0,1-.388-.43.362.362,0,0,1,.454-.409c.176.038.317.232.475.355,0,.063,0,.126,0,.19" transform="translate(-98.695 -137.124)" fill="#3a84e7"/>
        <path id="Trazado_4090" data-name="Trazado 4090" d="M141.677,159.538a1.343,1.343,0,1,0,1.349,1.326,1.347,1.347,0,0,0-1.349-1.326m.43,1.382c-.041.176-.236.315-.362.471l-.19-.006c-.1-.183-.3-.376-.284-.544a.609.609,0,0,1,.435-.382.362.362,0,0,1,.4.461" transform="translate(-120.625 -137.126)" fill="#3a84e7"/>
        <path id="Trazado_4091" data-name="Trazado 4091" d="M167.187,159.538a1.343,1.343,0,1,0,1.349,1.326,1.348,1.348,0,0,0-1.349-1.326M167.7,161c-.18.108-.368.313-.535.3a.606.606,0,0,1-.392-.426.361.361,0,0,1,.448-.413c.177.035.322.228.48.35,0,.063,0,.126,0,.191" transform="translate(-142.551 -137.126)" fill="#3a84e7"/>
        <rect id="Rectángulo_1751" data-name="Rectángulo 1751" width="8.01" height="0.844" transform="translate(17.941 1.82)" fill="#3a84e7"/>
        <rect id="Rectángulo_1752" data-name="Rectángulo 1752" width="6.233" height="0.843" transform="translate(19.733 3.613)" fill="#3a84e7"/>
        <rect id="Rectángulo_1753" data-name="Rectángulo 1753" width="6.23" height="0.832" transform="translate(17.946 5.419)" fill="#3a84e7"/>
        <rect id="Rectángulo_1754" data-name="Rectángulo 1754" width="0.844" height="0.843" transform="translate(17.952 3.61)" fill="#3a84e7"/>
        <rect id="Rectángulo_1755" data-name="Rectángulo 1755" width="0.856" height="0.832" transform="translate(25.107 5.411)" fill="#3a84e7"/>
        <rect id="Rectángulo_1756" data-name="Rectángulo 1756" width="0.833" height="0.857" transform="translate(7.197 12.56)" fill="#3a84e7"/>
        <rect id="Rectángulo_1757" data-name="Rectángulo 1757" width="0.856" height="0.833" transform="translate(17.938 12.58)" fill="#3a84e7"/>
        <rect id="Rectángulo_1758" data-name="Rectángulo 1758" width="0.858" height="0.837" transform="translate(3.593 19.755)" fill="#3a84e7"/>
        <rect id="Rectángulo_1759" data-name="Rectángulo 1759" width="0.833" height="0.857" transform="translate(10.78 16.145)" fill="#3a84e7"/>
      </g>
    </g>
    <g id="Grupo_2896" data-name="Grupo 2896" transform="translate(924.469 1164.088)">
      <g id="Grupo_2895" data-name="Grupo 2895" clip-path="url(#clip-path-2)">
        <path id="Trazado_4092" data-name="Trazado 4092" d="M30.665,12.557A2.5,2.5,0,0,0,30.43,11.5Q28.2,7.008,25.91,2.536A2.04,2.04,0,0,0,24,1.4c-.249,0-.5,0-.77,0-.012-.135-.021-.211-.023-.288C23.176.016,23.161,0,22.046,0H8.585C7.525,0,7.5.027,7.471,1.105c0,.077-.01.155-.02.293-.31,0-.565-.008-.819,0A2.059,2.059,0,0,0,4.744,2.574Q2.5,6.988.288,11.411a2.671,2.671,0,0,0-.272,1.144c-.023,3.033-.016,6.068-.01,9.1a2.04,2.04,0,0,0,2.158,2.164q13.172.007,26.346,0a2.042,2.042,0,0,0,2.161-2.163q.012-4.55-.007-9.1M23.23,2.788c1-.221,1.287-.089,1.729.783l3.17,6.269c.077.153.147.31.239.51H25.912c0-.628,0-1.231,0-1.833,0-.839-.117-.956-.973-.978-.094,0-.186-.012-.364-.023,0-.452,0-.89,0-1.328,0-.542.007-1.085,0-1.627-.008-.62-.183-.786-.808-.793-.171,0-.341,0-.536,0Zm1.464,5.989v1.568c-.137.01-.274.03-.41.03-.814,0-1.63.03-2.443-.005a1.518,1.518,0,0,0-1.624,1.063c-.135.341-.345.656-.443,1.006-.157.565-.495.681-1.05.674-2.347-.035-4.695-.023-7.042-.007a.6.6,0,0,1-.676-.435c-.191-.506-.43-1-.666-1.482a1.332,1.332,0,0,0-1.3-.813c-1.006,0-2.009,0-3.063,0v-1.6Zm-16-7.57h13.32c0,.753,0,1.469,0,2.186,0,.109-.018.218-.03.348H8.692ZM23.37,7.51H7.309V4.984H23.37ZM2.557,9.827Q4.117,6.734,5.68,3.642c.475-.941.641-1.028,1.761-.877v1c-.162,0-.33,0-.5,0-.679.007-.836.161-.841.855,0,.8,0,1.6,0,2.394v.468a2.227,2.227,0,0,1-.236.051c-1.09.069-1.1.081-1.1,1.187,0,.539,0,1.076,0,1.634H2.3c.094-.2.17-.364.252-.529M29.333,21.681c0,.575-.292.844-.917.847-1.612.007-3.224,0-4.838,0H2.451c-.889,0-1.109-.216-1.109-1.09q0-4.384,0-8.768c0-.747.224-.976.963-.978,2.14,0,4.279,0,6.419-.008a.529.529,0,0,1,.574.371c.213.514.442,1.022.682,1.526a1.325,1.325,0,0,0,1.286.826q4.073,0,8.143,0a1.333,1.333,0,0,0,1.287-.826c.254-.532.473-1.081.743-1.6a.583.583,0,0,1,.415-.274q3.331-.025,6.66-.008a.725.725,0,0,1,.816.832q.007,4.574,0,9.151" transform="translate(0 -0.001)" fill="#3a84e7"/>
        <path id="Trazado_4093" data-name="Trazado 4093" d="M75.5,101.184c-.008-.725-.364-1.07-1.106-1.073-1.07,0-2.14,0-3.21,0-1.086,0-2.171,0-3.257,0a.945.945,0,0,0-1.043,1.037q-.015.932,0,1.868a.961.961,0,0,0,1.057,1.03q3.257.008,6.515,0A.959.959,0,0,0,75.5,103c.01-.607.008-1.213,0-1.82m-1.231,1.632H68.1v-1.475h6.165Z" transform="translate(-55.849 -83.607)" fill="#3a84e7"/>
      </g>
    </g>
    <g id="Grupo_2898" data-name="Grupo 2898" transform="translate(1103.07 1166.076)">
      <g id="Grupo_2897" data-name="Grupo 2897" clip-path="url(#clip-path-3)">
        <path id="Trazado_4094" data-name="Trazado 4094" d="M112.564,3.437A3.2,3.2,0,0,0,109.133,0q-4.592,0-9.184,0a3.222,3.222,0,0,0-3.505,3.522q0,3.43,0,6.862,0,3.532,0,7.064c0,.4.009.79.421,1.006s.737-.005,1.055-.245c.792-.6,1.573-1.212,2.389-1.775a1.731,1.731,0,0,1,.911-.3c2.657-.023,5.316,0,7.973-.016a3.191,3.191,0,0,0,3.373-3.4q0-4.642,0-9.285m-1.515,9.148c0,1.4-.626,2.017-2.042,2.019-2.725,0-5.449.006-8.173-.006a1.723,1.723,0,0,0-1.16.386c-.52.421-1.068.808-1.712,1.29v-.628q0-6,0-12.008c0-1.543.587-2.122,2.141-2.122q4.49,0,8.981,0A1.729,1.729,0,0,1,111.048,3.5q0,4.542,0,9.082" transform="translate(-86.705 0.001)" fill="#3a84e7"/>
        <path id="Trazado_4095" data-name="Trazado 4095" d="M9.538,131.071A4.646,4.646,0,0,0,7.324,127.8a4.075,4.075,0,0,0,.248-6.085,4.026,4.026,0,0,0-5.527.036c-1.712,1.65-1.614,3.917.277,6.049a5.283,5.283,0,0,0-1.805,1.984,7.549,7.549,0,0,0-.476,3.9.67.67,0,0,0,.746.613q4.035.008,8.07,0a.671.671,0,0,0,.75-.659,16.2,16.2,0,0,0-.07-2.564m-4.709-8.929a2.485,2.485,0,0,1,.015,4.969,2.485,2.485,0,1,1-.015-4.969m3.25,10.626H1.6a3.378,3.378,0,0,1,1.346-3.547,3.147,3.147,0,0,1,3.6-.1,3.417,3.417,0,0,1,1.533,3.644" transform="translate(0 -108.451)" fill="#3a84e7"/>
        <path id="Trazado_4096" data-name="Trazado 4096" d="M138.138,41.389a.994.994,0,0,1-.682.215c-1.3.019-2.592.009-3.887.009s-2.591,0-3.886,0c-.568,0-.883-.272-.893-.735s.328-.775.912-.776c2.591-.005,5.181,0,7.772,0,.4,0,.779.108.861.533a1.027,1.027,0,0,1-.2.76" transform="translate(-115.787 -36.048)" fill="#3a84e7"/>
        <path id="Trazado_4097" data-name="Trazado 4097" d="M138.137,73.507a.994.994,0,0,1-.683.213c-1.312.019-2.624.009-3.936.009-1.262,0-2.523,0-3.785,0-.617,0-.933-.255-.943-.733s.324-.777.912-.779c2.591-.006,5.181,0,7.772,0,.4,0,.779.109.861.534a1.019,1.019,0,0,1-.2.76" transform="translate(-115.787 -64.921)" fill="#3a84e7"/>
        <path id="Trazado_4098" data-name="Trazado 4098" d="M134.347,105.111c.008.442-.332.751-.873.762-.637.012-1.274,0-1.911,0s-1.274.01-1.911,0c-.559-.011-.867-.3-.86-.764a.742.742,0,0,1,.837-.742q1.935-.021,3.873,0a.772.772,0,0,1,.846.744" transform="translate(-115.788 -93.82)" fill="#3a84e7"/>
      </g>
    </g>
  </g>
</svg>
