<svg xmlns="http://www.w3.org/2000/svg" xmlns:xlink="http://www.w3.org/1999/xlink" width="96.534" height="16" viewBox="0 0 96.534 16">
  <defs>
    <clipPath id="clip-path">
      <rect id="Rectangle_529" data-name="Rectangle 529" width="96.534" height="16" transform="translate(0 0)" fill="#eff3f3"/>
    </clipPath>
  </defs>
  <g id="Group_9835" data-name="Group 9835" transform="translate(5 15)">
    <g id="Group_657" data-name="Group 657" transform="translate(-5 -15)" clip-path="url(#clip-path)">
      <path id="Path_83" data-name="Path 83" d="M12.662,13.381l.671.595a7.716,7.716,0,0,1-5.362,2.07,7.683,7.683,0,0,1-5.643-2.329A7.682,7.682,0,0,1,0,8.074,7.7,7.7,0,0,1,2.329,2.442,7.667,7.667,0,0,1,7.971.1a7.691,7.691,0,0,1,5.362,2.081l-.671.595A6.856,6.856,0,0,0,7.971,1.006a6.828,6.828,0,0,0-5,2.07,6.8,6.8,0,0,0-2.075,5,6.814,6.814,0,0,0,2.075,5.01,6.828,6.828,0,0,0,5,2.07,6.856,6.856,0,0,0,4.691-1.773" transform="translate(0 -0.046)" fill="#eff3f3"/>
      <path id="Path_84" data-name="Path 84" d="M25.642,4.887A5.14,5.14,0,0,1,29.424,6.45a5.169,5.169,0,0,1,1.558,3.788,5.16,5.16,0,0,1-1.558,3.771,5.33,5.33,0,0,1-7.553,0A5.142,5.142,0,0,1,20.3,10.238,5.151,5.151,0,0,1,21.871,6.45a5.15,5.15,0,0,1,3.771-1.563M22.521,7.111a4.273,4.273,0,0,0-1.294,3.127,4.418,4.418,0,0,0,7.537,3.116,4.234,4.234,0,0,0,1.294-3.116,4.271,4.271,0,0,0-1.294-3.127,4.4,4.4,0,0,0-6.243,0" transform="translate(-9.039 -2.176)" fill="#eff3f3"/>
      <path id="Path_85" data-name="Path 85" d="M60.418,9.742a3.558,3.558,0,0,0-.033.5,4.415,4.415,0,0,0,7.542,3.105q.221-.221.418-.463l.936.33a4.654,4.654,0,0,1-.693.793,5.329,5.329,0,0,1-7.559.006,5.14,5.14,0,0,1-1.569-3.771A5.147,5.147,0,0,1,61.029,6.45a5.349,5.349,0,0,1,7.559,0,4.515,4.515,0,0,1,1.376,3.292Zm.165-.892h8.39a4.151,4.151,0,0,0-1.046-1.74,4.413,4.413,0,0,0-6.254,0,4.49,4.49,0,0,0-1.09,1.74" transform="translate(-26.473 -2.175)" fill="#eff3f3"/>
      <path id="Path_86" data-name="Path 86" d="M88.915,13l.925.341a5.936,5.936,0,0,1-.573.661,5.33,5.33,0,0,1-7.559.006,5.155,5.155,0,0,1-1.569-3.782A5.138,5.138,0,0,1,81.709,6.45a5.35,5.35,0,0,1,7.559,0,5.936,5.936,0,0,1,.573.661l-.925.341q-.143-.176-.308-.352a4.415,4.415,0,0,0-7.531,3.127,4.253,4.253,0,0,0,1.294,3.121,4.4,4.4,0,0,0,6.237-.006A4.324,4.324,0,0,0,88.915,13" transform="translate(-35.681 -2.176)" fill="#eff3f3"/>
      <path id="Path_87" data-name="Path 87" d="M101.745,6.649V0h.87V6.649h13.708V7.53H102.614v8.462h-.87V7.53H97.828V6.649Z" transform="translate(-43.556 0)" fill="#eff3f3"/>
      <path id="Path_88" data-name="Path 88" d="M118.281,15.577a5.141,5.141,0,0,1-3.771-1.569,5.14,5.14,0,0,1-1.569-3.771A5.147,5.147,0,0,1,114.51,6.45a5.349,5.349,0,0,1,7.559,0,4.515,4.515,0,0,1,1.376,3.292H113.9a3.558,3.558,0,0,0-.033.5,4.415,4.415,0,0,0,7.542,3.105q.221-.221.418-.463l.936.33a4.652,4.652,0,0,1-.693.793,5.139,5.139,0,0,1-3.787,1.575M114.064,8.85h8.39a4.151,4.151,0,0,0-1.046-1.74,4.413,4.413,0,0,0-6.254,0,4.49,4.49,0,0,0-1.09,1.74" transform="translate(-50.285 -2.175)" fill="#eff3f3"/>
      <path id="Path_89" data-name="Path 89" d="M137.739,7A3.49,3.49,0,0,0,135.9,8.332a3.241,3.241,0,0,0-.9,2.114v5.483h-.88V6.372H135v2.07A3.8,3.8,0,0,1,137.254,6.3Z" transform="translate(-59.713 -2.803)" fill="#eff3f3"/>
      <path id="Path_90" data-name="Path 90" d="M153.488,15.3h-.881V13.353a6.576,6.576,0,0,1-.551.649,5.329,5.329,0,0,1-7.558.006,5.142,5.142,0,0,1-1.569-3.771A5.148,5.148,0,0,1,144.5,6.45a5.348,5.348,0,0,1,7.558,0,6.519,6.519,0,0,1,.551.65V5.745h.881Zm-.881-4.206V9.367a4.42,4.42,0,0,0-8.753.87,4.421,4.421,0,0,0,8.753.859" transform="translate(-63.636 -2.175)" fill="#eff3f3"/>
      <path id="Path_91" data-name="Path 91" d="M48.458,6.456A3.716,3.716,0,0,0,45.752,5.4v0H45.73v0a3.663,3.663,0,0,0-3.79,3.728v6.4h.87V9.214a2.8,2.8,0,0,1,.88-2.08,2.888,2.888,0,0,1,4.1,0,2.8,2.8,0,0,1,.881,2.08v6.309h.87v-6.4a3.7,3.7,0,0,0-1.085-2.67" transform="translate(-18.673 -2.403)" fill="#eff3f3"/>
      <rect id="Rectangle_528" data-name="Rectangle 528" width="5.237" height="0.873" transform="translate(30.136 6.672)" fill="#eff3f3"/>
      <path id="Path_92" data-name="Path 92" d="M141.578,5.962a5.316,5.316,0,0,0-6.265,1.488,5.1,5.1,0,0,0-1.2,3.421l.9-.054a4.355,4.355,0,0,1,1.025-2.779A4.241,4.241,0,0,1,139,6.45a4.41,4.41,0,0,1,1.726.16Z" transform="translate(-59.711 -2.451)" fill="#eff3f3"/>
      <path id="Path_93" data-name="Path 93" d="M169.751,19.8a2.246,2.246,0,1,1,.657-1.592,2.162,2.162,0,0,1-.657,1.592M166.8,16.843a1.955,1.955,0,0,0,0,2.742,1.925,1.925,0,0,0,2.732,0,1.95,1.95,0,0,0,0-2.742,1.922,1.922,0,0,0-2.73,0m1.321.126a1.889,1.889,0,0,1,.672.088.613.613,0,0,1,.382.625.541.541,0,0,1-.24.487.945.945,0,0,1-.356.119.592.592,0,0,1,.422.241.677.677,0,0,1,.133.382v.18c0,.057,0,.118.007.184a.358.358,0,0,0,.021.128l.016.031h-.406l-.006-.024c0-.007,0-.018-.007-.028l-.008-.079v-.2a.6.6,0,0,0-.233-.563,1.036,1.036,0,0,0-.482-.079h-.342v.968h-.435V16.969Zm.468.388a1.123,1.123,0,0,0-.525-.092h-.371v.893h.392a1.162,1.162,0,0,0,.413-.056.443.443,0,0,0,.09-.745" transform="translate(-73.875 -7.11)" fill="#eff3f3"/>
    </g>
  </g>
</svg>
