<svg xmlns="http://www.w3.org/2000/svg" xmlns:xlink="http://www.w3.org/1999/xlink" width="126.372" height="98.262" viewBox="0 0 126.372 98.262">
  <defs>
    <clipPath id="clip-path">
      <rect id="Rect치ngulo_1725" data-name="Rect치ngulo 1725" width="126.372" height="98.262" fill="none"/>
    </clipPath>
  </defs>
  <g id="Grupo_2860" data-name="Grupo 2860" transform="translate(0 0)">
    <g id="Grupo_2859" data-name="Grupo 2859" transform="translate(0 0)" clip-path="url(#clip-path)">
      <path id="Trazado_4060" data-name="Trazado 4060" d="M100.371,5.714H32.7l.207.522L37.96,18.809l61.711.05a28.147,28.147,0,0,1,3.477.406l-.128-.047V8.359a2.646,2.646,0,0,0-2.649-2.645" transform="translate(9.549 1.669)" fill="#ffc10e"/>
      <path id="Trazado_4061" data-name="Trazado 4061" d="M102.092,6.882a2.646,2.646,0,0,1,2.649,2.645v10.86l.128.047a28.247,28.247,0,0,0-3.477-.407l-61.711-.049L34.623,7.4l-.207-.522Zm0-5.168H26.8l2.809,7.075.208.522L34.886,21.9l1.3,3.238,3.49,0,61.557.049a22.1,22.1,0,0,1,2.5.28l1.482-5.088h4.7V9.527a7.824,7.824,0,0,0-7.817-7.813" transform="translate(7.828 0.501)" fill="#022e4c"/>
      <path id="Trazado_4062" data-name="Trazado 4062" d="M108.051,21.943l-61.711-.05L41.283,9.321,39.146,4H9.609A5.607,5.607,0,0,0,4,9.61V86.315a5.609,5.609,0,0,0,5.609,5.61H114.423a5.612,5.612,0,0,0,5.613-5.61V33.538a11.646,11.646,0,0,0-8.507-11.188,28.247,28.247,0,0,0-3.477-.407M118.79,83.579H5.255V79.392H118.79Z" transform="translate(1.168 1.168)" fill="#023f87"/>
      <path id="Trazado_4063" data-name="Trazado 4063" d="M40.315,5.168l2.137,5.321,5.057,12.572,61.71.05a28.258,28.258,0,0,1,3.478.407A11.647,11.647,0,0,1,121.2,34.706V87.483a5.611,5.611,0,0,1-5.613,5.61H10.777a5.609,5.609,0,0,1-5.609-5.61V10.778a5.607,5.607,0,0,1,5.609-5.61ZM6.421,84.747H119.957V80.561H6.421ZM43.807,0H10.777A10.79,10.79,0,0,0,0,10.778V87.483A10.79,10.79,0,0,0,10.777,98.262H115.589A10.792,10.792,0,0,0,126.37,87.483V34.706a16.864,16.864,0,0,0-12.276-16.164l-.129-.036-.131-.03a31.769,31.769,0,0,0-4.326-.526l-.143-.008h-.142L51,17.9,47.246,8.56,45.109,3.242Z" transform="translate(0 0)" fill="#022e4c"/>
      <rect id="Rect치ngulo_1724" data-name="Rect치ngulo 1724" width="113.535" height="4.186" transform="translate(6.423 80.561)" fill="#ffc10e"/>
      <path id="Trazado_4064" data-name="Trazado 4064" d="M68.317,25.061H85.262s8.9-1.292,8.9,10.336V47.61" transform="translate(19.952 7.307)" fill="none" stroke="#fff" stroke-linecap="round" stroke-width="4"/>
    </g>
  </g>
</svg>
