<svg xmlns="http://www.w3.org/2000/svg" xmlns:xlink="http://www.w3.org/1999/xlink" width="122.455" height="96.272" viewBox="0 0 122.455 96.272">
  <defs>
    <clipPath id="clip-path">
      <rect id="Rectángulo_1712" data-name="Rectángulo 1712" width="122.455" height="96.272" fill="none"/>
    </clipPath>
  </defs>
  <g id="Grupo_2843" data-name="Grupo 2843" transform="translate(0 0)">
    <g id="Grupo_2842" data-name="Grupo 2842" transform="translate(0 0)" clip-path="url(#clip-path)">
      <path id="Trazado_3962" data-name="Trazado 3962" d="M15.02,49.047l.05-.031-.054.029a5.305,5.305,0,0,0-.717.448l.722-.443Z" transform="translate(0.966 3.311)" fill="#5cbfab"/>
      <path id="Trazado_3963" data-name="Trazado 3963" d="M49.575,61.692a32.713,32.713,0,0,1-3.969-3.827l-14.379,8.9L36.3,69.912l1.39-.86a4.63,4.63,0,0,1,1.015-.63Z" transform="translate(2.11 3.909)" fill="#ffc10e"/>
      <path id="Trazado_3964" data-name="Trazado 3964" d="M41.182,50.568a32.822,32.822,0,0,1-1.847-5.143L19.849,57.491l-.589.361-.163.1.174-.1a27.012,27.012,0,0,0,3.8,3.919l.772-.478,1.42-.876Z" transform="translate(1.29 3.069)" fill="#ffc10e"/>
      <path id="Trazado_3965" data-name="Trazado 3965" d="M97.56,6.017,92.322,9.261a9.731,9.731,0,0,1-7.081,1.255,33.113,33.113,0,0,0-3.435-1.425,33.221,33.221,0,0,0-21.6-.079,33.034,33.034,0,0,1,6.82,3.187l.057.038.013-.013L90.578,26.893l.132.082a4.738,4.738,0,1,1-5.154,7.944l-3.764-2.351L63.046,20.86l-.067-.042a2.161,2.161,0,0,0-2.776.513l.2.21a2.146,2.146,0,0,1-.2,2.5l-.394.414-.244.154L53,28.674l-.006-.013L37.758,38.094,14.023,52.787l-.05.035-.727.446A4.892,4.892,0,0,0,18.4,61.544l.164-.106.592-.363L38.777,48.928a33.078,33.078,0,0,0,1.859,5.178L24.608,64.029l-1.429.883a4.9,4.9,0,1,0,6.571,7.258l.07.1,1.619-1L45.915,62.3a33.072,33.072,0,0,0,4,3.853L38.972,72.926a4.68,4.68,0,0,0-1.022.634,4.861,4.861,0,1,0,6.576,7.115l.147.188,1.161-.72,9.26-5.736,2.78-1.721V70.214l-.023-.469.023-.469a4.887,4.887,0,0,1,9.751.421v.1l0,6.042,0,8.607L73,81.115v-.65l-.006-.048L73,80.37v-5.2L73,67.7V63.86l0-1.307-.015-.233.015-.236a4.871,4.871,0,0,1,9.736.239l-.01.236.022,0v4.856l0,7.7,5.376-3.331V66.208l0-6.927v-.016l-.006-.175.032-.456v-.6h.1a4.885,4.885,0,0,1,2.68-3.346,4.837,4.837,0,0,1,6.832,3.346h.093v.759l.021.2.013.1-.013.223V65.5a27.577,27.577,0,0,0,8.031-11.134,28.058,28.058,0,0,0,1.406-4.85l.081-.456a9.748,9.748,0,0,1,2.984-5.093l2.958-1.832,4.755-2.943Z" transform="translate(0.763 0.406)" fill="#023f87"/>
      <path id="Trazado_3966" data-name="Trazado 3966" d="M79.068,58.946l-.022,0,.01-.235a4.838,4.838,0,0,0-9.671-.237l-.014.235.014.231,0,1.3v3.817l-.006,7.413V76.64l-.005.048.005.048v.645l.06-.038a4.813,4.813,0,0,0,9.549-.05h.042V76.9l.021-.211-.021-.212V71.439l.04-.021,0-7.647Z" transform="translate(4.686 3.639)" fill="#ffc10e"/>
      <path id="Trazado_3967" data-name="Trazado 3967" d="M93.154,55.712l-.013-.1-.021-.2v-.754h-.092a4.841,4.841,0,0,0-9.449,0h-.094v.595l-.032.453.006.174V55.9l0,6.881v5.536l.03-.019v.781l-.021.2.021.206v.4h.042a4.81,4.81,0,0,0,9.551,0h.042V69.49l.021-.211-.021-.209V62.091l.021-.016V55.934Z" transform="translate(5.638 3.436)" fill="#ffc10e"/>
      <path id="Trazado_3968" data-name="Trazado 3968" d="M55.262,77.351V73.939l-5.386,3.336-.106.063a4.843,4.843,0,1,0,5.489,7.98l0-5.7Z" transform="translate(3.22 4.995)" fill="#023f87"/>
      <path id="Trazado_3969" data-name="Trazado 3969" d="M38.709,35.825l15.377-9.519.006.013,6.623-4.1.247-.155.4-.417a2.164,2.164,0,0,1-.5-1.711l.023-.1a2.278,2.278,0,0,1,.271-.717l.2-.212a2.181,2.181,0,0,1,2.8-.518l.068.043L83.147,30.248l3.8,2.373a4.781,4.781,0,1,0,5.2-8.016l-.135-.083-23.7-14.8-.013.013-.058-.038A33.86,33.86,0,0,0,43.576,5.436a32.661,32.661,0,0,0-4.015,1.122A33.534,33.534,0,0,0,36.094,8a9.822,9.822,0,0,1-7.147-1.267L23.663,3.455,2.936,36.935l4.8,2.971,2.987,1.849a9.823,9.823,0,0,1,3.007,5.139l.086.46c.131.7.312,1.4.5,2.086.115.418.25.831.382,1.243l.056-.03Z" transform="translate(0.198 0.233)" fill="#ffc10e"/>
      <path id="Trazado_3970" data-name="Trazado 3970" d="M65.24,64.9v6.395l-.014,8.962-.015.014V84.62l.015.227-.015.226v.412H65.17a5.046,5.046,0,0,1-9.827.892l-.255.156v-21.1l-.029-.483.029-.5a5.088,5.088,0,0,1,10.152.44" transform="translate(3.719 4.044)" fill="#eaab0c"/>
      <path id="Trazado_3971" data-name="Trazado 3971" d="M79.4,31l-1.761,2.871,5.014,3.684,4.22-1.217,1.889-2.514-.821-.689Z" transform="translate(5.245 2.094)" fill="#023f87"/>
      <path id="Trazado_3972" data-name="Trazado 3972" d="M40.521,33.433l-2.49,1.543-23.571,14.6-.054.027c-.136-.406-.271-.811-.379-1.217-.189-.691-.365-1.368-.487-2.057l-.1-.46A9.579,9.579,0,0,0,10.5,40.82l-2.95-1.827L2.824,36.072l9.8-15.818Z" transform="translate(0.191 1.368)" fill="#eaab0c"/>
      <path id="Trazado_3973" data-name="Trazado 3973" d="M79.593,58.426v4.831L79.579,70.9l-.041.014v5.046l.028.2-.028.217v.393H79.5a4.812,4.812,0,0,1-4.762,4.235h-.014a4.816,4.816,0,0,1-4.762-4.181l-.068.027V73.541l.014-8.5V58.426l-.014-.23.014-.244a4.835,4.835,0,0,1,4.316-4.573c.176-.013.338-.027.515-.027A4.871,4.871,0,0,1,79.579,58.2l-.013.23Z" transform="translate(4.721 3.604)" fill="#ffc10e"/>
      <path id="Trazado_3974" data-name="Trazado 3974" d="M65.209,65.051v6.1l-.014,8.552-.013.013v4.154l.013.217-.013.217V84.7h-.041a4.853,4.853,0,0,1-4.005,4.167l-.853-28.617h.081a4.856,4.856,0,0,1,4.845,4.8" transform="translate(4.072 4.07)" fill="#ffc10e"/>
      <path id="Trazado_3975" data-name="Trazado 3975" d="M93.675,55.712l-.014.217v6.143l-.028.014v6.982l.028.217-.028.2v.392h-.041a4.825,4.825,0,0,1-4.776,4.236.365.365,0,0,1-.122-.014,4.824,4.824,0,0,1-4.655-4.222H84v-.392l-.014-.2.014-.2V68.3l-.028.013v-12.6l.028-.46v-.6h.094a4.888,4.888,0,0,1,2.666-3.329c.11-.053.217-.094.325-.135a1.817,1.817,0,0,1,.352-.122,2.953,2.953,0,0,1,.7-.162l.284-.041a3.6,3.6,0,0,1,.393-.014,4.86,4.86,0,0,1,4.736,3.8h.081v.758l.028.19Z" transform="translate(5.673 3.435)" fill="#ffc10e"/>
      <path id="Trazado_3976" data-name="Trazado 3976" d="M82.928,27.022a1.593,1.593,0,0,1-.856-.249l-7.73-4.9a1.6,1.6,0,1,1,1.716-2.7l7.73,4.9a1.6,1.6,0,0,1-.859,2.954" transform="translate(4.972 1.278)" fill="#fcfcfc"/>
      <path id="Trazado_3977" data-name="Trazado 3977" d="M89.532,64.325a1.6,1.6,0,0,1-1.6-1.6V54.942a1.6,1.6,0,1,1,3.2,0v7.781a1.6,1.6,0,0,1-1.6,1.6" transform="translate(5.94 3.603)" fill="#fcfcfc"/>
      <path id="Trazado_3978" data-name="Trazado 3978" d="M75.59,67.56a1.6,1.6,0,0,1-1.6-1.6V58.177a1.6,1.6,0,0,1,3.2,0v7.781a1.6,1.6,0,0,1-1.6,1.6" transform="translate(4.998 3.822)" fill="#fcfcfc"/>
      <path id="Trazado_3979" data-name="Trazado 3979" d="M61.648,76.585a1.6,1.6,0,0,1-1.6-1.6V67.2a1.6,1.6,0,1,1,3.2,0v7.781a1.6,1.6,0,0,1-1.6,1.6" transform="translate(4.056 4.432)" fill="#fcfcfc"/>
      <path id="Trazado_3980" data-name="Trazado 3980" d="M73.481,53.373V81.562h-.014A4.878,4.878,0,0,1,68.661,77.3l-.068.028V73.949l.014-8.661V59.3l-.014-.263.014-.289a6.136,6.136,0,0,1,1.338-3.626A4.708,4.708,0,0,1,72.963,53.4c.177-.014.342-.028.519-.028" transform="translate(4.634 3.606)" fill="#eaab0c"/>
      <path id="Trazado_3981" data-name="Trazado 3981" d="M88.386,74.608a5.227,5.227,0,0,1-5.043-4.574H83.3v-.425l-.015-.22.015-.22v-.85l-.03.014V54.684l.03-.5v-.645h.1a5.293,5.293,0,0,1,2.888-3.606,3.517,3.517,0,0,1,.352-.146,1.9,1.9,0,0,1,.381-.132,3.267,3.267,0,0,1,.762-.176Z" transform="translate(5.625 3.343)" fill="#eaab0c"/>
      <path id="Trazado_3982" data-name="Trazado 3982" d="M30,14.948a1.6,1.6,0,0,1-.595-.115l-7.29-2.918a1.6,1.6,0,1,1,1.19-2.973L30.6,11.86a1.6,1.6,0,0,1-.6,3.088" transform="translate(1.426 0.596)" fill="#fcfcfc"/>
      <path id="Trazado_3983" data-name="Trazado 3983" d="M37.394,14.948a1.6,1.6,0,0,1-.987-2.863c.4-.314,9.989-7.624,23.577-2.369A1.6,1.6,0,1,1,58.829,12.7C46.918,8.1,38.463,14.543,38.38,14.609a1.6,1.6,0,0,1-.985.339" transform="translate(2.418 0.528)" fill="#fcfcfc"/>
      <path id="Trazado_3984" data-name="Trazado 3984" d="M35.062,16.244a1.615,1.615,0,1,1,0-2.285,1.615,1.615,0,0,1,0,2.285" transform="translate(2.182 0.911)" fill="#fcfcfc"/>
      <path id="Trazado_3985" data-name="Trazado 3985" d="M52.652,69.634v.056l-.052-.028Z" transform="translate(3.553 4.704)" fill="#022e4c"/>
      <path id="Trazado_3986" data-name="Trazado 3986" d="M52.6,69.662l.052.028v-.056Z" transform="translate(3.553 4.704)" fill="#022e4c"/>
      <path id="Trazado_3987" data-name="Trazado 3987" d="M47.222,83.078l1.164-.714,3.046-1.882a7.478,7.478,0,0,0-2.83,5.859,7.564,7.564,0,0,0,7.552,7.551h2.125a7.45,7.45,0,0,0,5.479,2.381,7.542,7.542,0,0,0,6.751-4.234,4.2,4.2,0,0,0,.33-.693,2.066,2.066,0,0,0,.082-.236,25.874,25.874,0,0,0,.361-4.9v-.224l1.568-1.014a7.5,7.5,0,0,0,12.678-1.328h.036a10.969,10.969,0,0,0,.723-3.666V76.746l.851-.568a7.5,7.5,0,0,0,12.8.926c.125-.172.238-.352.349-.535l.009-.017a14.977,14.977,0,0,0,1.039-4.176V66.762a29.975,29.975,0,0,0,9.351-16.6l.08-.421a7.073,7.073,0,0,1,1.948-3.45l2.721-1.677,4.722-2.923,2.3-1.42-1.422-2.3L100.629,5l-1.419-2.3-2.3,1.421-5.2,3.235a7.029,7.029,0,0,1-3.669,1.028,7.774,7.774,0,0,1-1.108-.081A33.009,33.009,0,0,0,83.58,6.928,36.31,36.31,0,0,0,79.3,5.737a35.456,35.456,0,0,0-7.455-.8,33.694,33.694,0,0,0-6.3.582,34.739,34.739,0,0,0-3.454-1.38A35.711,35.711,0,0,0,50.605,2.231a35.3,35.3,0,0,0-7.455.8,38.211,38.211,0,0,0-4.276,1.189c-1.111.393-2.233.853-3.356,1.379a7.468,7.468,0,0,1-1.108.083,6.91,6.91,0,0,1-3.669-1.042l-5.2-3.223L23.245,0,21.826,2.3,1.422,35.261,0,37.561l2.3,1.422L7.022,41.9l2.719,1.679a7,7,0,0,1,1.962,3.45l.069.4c.149.812.365,1.6.54,2.261.122.418.243.826.379,1.245l.028.094.1.3a7.445,7.445,0,0,0-2.882,5.9A7.574,7.574,0,0,0,20.92,64.015l.12-.069.122-.08.163-.108.352-.217.189-.108.665-.407a6.549,6.549,0,0,0-.665.7,7.455,7.455,0,0,0-1.8,4.858,7.576,7.576,0,0,0,10.176,7.13l.485-.172,1.747-1.007,1.61-1,1.136-.7h.014l1.924-1.2a7.591,7.591,0,0,0-2.6,5.682,7.552,7.552,0,0,0,7.551,7.538,7.333,7.333,0,0,0,2.962-.61M11.393,41.433,8.444,39.6,3.723,36.682l20.4-32.961,5.2,3.231A9.691,9.691,0,0,0,34.41,8.389,10.469,10.469,0,0,0,36.359,8.2a30.445,30.445,0,0,1,3.409-1.421,33.243,33.243,0,0,1,3.952-1.1,32.658,32.658,0,0,1,17.306.945c.066.028.136.042.2.069A34.221,34.221,0,0,1,65.18,8.335H65.2a31.474,31.474,0,0,1,2.8,1.528l.056.042.014-.014L91.4,24.464l.136.081A4.7,4.7,0,0,1,93.7,27.508a4.625,4.625,0,0,1-.08,2.407,4.713,4.713,0,0,1-3.45,3.249,3.409,3.409,0,0,1-.731.094.281.281,0,0,1-.108.014,1.275,1.275,0,0,1-.231.014,4.746,4.746,0,0,1-2.69-.851l-3.735-2.328L64.054,18.47l-.066-.041a2.326,2.326,0,0,0-.771-.286c-.094,0-.2-.011-.313-.011h-.012a1.833,1.833,0,0,0-.243.011l-.2.042a1.3,1.3,0,0,0-.311.108,1.693,1.693,0,0,0-.257.109c-.067.042-.137.082-.189.122a.555.555,0,0,1-.108.08,2.153,2.153,0,0,0-.352.341l-.2.2a2.328,2.328,0,0,0-.258.7l-.028.108a2.121,2.121,0,0,0,.488,1.677,2.021,2.021,0,0,1,.175-.161,1.045,1.045,0,0,0-.175.175l-.393.394-.244.16-6.521,4.032v-.014L38.927,35.585l-23.568,14.6-.056.025c-.039-.132-.081-.254-.137-.391-.08-.271-.174-.554-.243-.825-.188-.691-.363-1.366-.485-2.056l-.1-.46a9.562,9.562,0,0,0-2.951-5.046M56.206,91.184h-.052a4.838,4.838,0,0,1-2.732-8.834l.108-.069,2.676-1.663Zm12.4-15.4-.014,8.549-.014.014v3.2a10.721,10.721,0,0,1-.58,3.464,4.795,4.795,0,0,1-5.885,2.263.223.223,0,0,1-.042-.016,4.8,4.8,0,0,1-1.422-.842c-.014-.012-.028-.022-.042-.036a.019.019,0,0,1-.014-.011,7.029,7.029,0,0,1-1.676-4.612c-.02-.471,0-.773,0-.773V70.2l-.028-.46.028-.474a4.856,4.856,0,0,1,9.688.421Zm14.936,5.154a4.811,4.811,0,0,1-4.774,4.234c-.149,0-.3-.014-.446-.028a1.129,1.129,0,0,1-.3-.038.762.762,0,0,1-.243-.042h-.011a1.475,1.475,0,0,1-.314-.08c-.122-.028-.23-.069-.351-.108-.014-.014-.04-.014-.053-.028a4.09,4.09,0,0,1-.773-.38,2.881,2.881,0,0,1-.418-.283,1.812,1.812,0,0,1-.144-.113.328.328,0,0,1-.047-.036c-.073-.058-.139-.12-.2-.183-.038-.036-.075-.075-.111-.114a.12.12,0,0,1-.019-.022,1.114,1.114,0,0,1-.1-.1l-.005-.005-.078-.1-.025-.03a6.89,6.89,0,0,1-1.189-3.719c0-.061-.005-.118-.009-.174s-.005-.111-.005-.163,0-.106,0-.153c-.009-.444.016-.724.016-.724v-3.43l.014-7.413V62.594l-.014-.231.014-.243a4.841,4.841,0,0,1,9.674.243l-.014.231h.028v4.83l-.014,6.928.014-.014M98.653,59.373v6.144l-.025.014v6.981l.025.217-.025.2v.394h-.042a4.824,4.824,0,0,1-4.777,4.234c-.147,0-.311-.014-.46-.028-.2-.011-.391-.052-.582-.08-.039-.014-.081-.028-.123-.038a3.625,3.625,0,0,1-.512-.163,1.842,1.842,0,0,1-.379-.164,1.3,1.3,0,0,1-.311-.16,2.25,2.25,0,0,1-.325-.2c-.056-.042-.122-.083-.177-.122a3.166,3.166,0,0,1-.325-.271c-.122-.108-.243-.231-.365-.352a2.254,2.254,0,0,1-.217-.271,3.1,3.1,0,0,1-.338-.486c-.014-.014-.014-.028-.028-.042-.08-.136-.146-.271-.216-.407a.638.638,0,0,1-.052-.108c-.069-.175-.137-.352-.191-.527-.039-.122-.067-.243-.1-.365a2.513,2.513,0,0,1-.08-.446h-.042V72.93l-.014-.2.014-.2v-.784l-.028.014V59.144l.028-.446v-.6h.094a4.89,4.89,0,0,1,2.667-3.329,4.77,4.77,0,0,1,2.056-.474,4.859,4.859,0,0,1,4.736,3.8h.083v.756l.025.192.014.108Zm-71,14.1c-2.834-.478-4.822-2.619-4.885-4.885a5.068,5.068,0,0,1,1.679-3.653l1.421-.881L41.8,54.205a32.64,32.64,0,0,1-1.851-5.143L20.458,61.12l-.594.365-.163.109a4.863,4.863,0,0,1-7.064-4.36,3.8,3.8,0,0,1,.109-.959,2.066,2.066,0,0,1,.056-.285c.042-.147.094-.3.149-.446a1.661,1.661,0,0,1,.108-.244,2.845,2.845,0,0,1,.3-.568,5.932,5.932,0,0,1,.554-.742h.014l2.638-1.38.083-.042.133-.08,23.585-14.6,12.814-7.929,2.328-1.421L62.012,24.5l.257-.161.3-.191.23-.243.394-.4,1.422-1.488L81.239,32.393l3.683,2.3a7.179,7.179,0,0,0,3.461,1.244c-.108-.014-.217-.042-.325-.066a5.336,5.336,0,0,0,.61.094,1.218,1.218,0,0,0,.217.014,1.072,1.072,0,0,0,.216.014,3.386,3.386,0,0,0,.53-.028.1.1,0,0,0,.066-.014h.028a5.367,5.367,0,0,0,1.056-.149,7.4,7.4,0,0,0,2.151-13.571l-.108-.066L69.7,7.726c.349-.028.714-.056,1.08-.056.352-.025.7-.025,1.07-.025a32.664,32.664,0,0,1,6.887.743,33.2,33.2,0,0,1,3.951,1.1A30.958,30.958,0,0,1,86.1,10.905a10.48,10.48,0,0,0,1.948.191A9.653,9.653,0,0,0,93.132,9.66l5.2-3.234,20.405,32.961-4.723,2.924-2.935,1.826a9.608,9.608,0,0,0-2.965,5.046l-.08.46a28.363,28.363,0,0,1-1.394,4.819c-.189.486-.391.974-.621,1.447a2,2,0,0,1-.163.338,9.179,9.179,0,0,1-.554,1.084,1.485,1.485,0,0,1-.136.283c-.258.474-.526.934-.826,1.394-.257.432-.554.867-.853,1.285-.081.122-.175.244-.269.366-.2.283-.422.568-.662.851-.366.488-.774.947-1.192,1.407V59.454l.014-.137.012-.163v-.022c0-.041,0-.082-.005-.122V59l-.034-.186-.014-.094v-.363a6.932,6.932,0,0,0-.95-2.968h-.022c-.044-.075-.089-.151-.136-.222l-.014-.019,0,0h0a7.593,7.593,0,0,0-6.387-3.558h-.014a7.581,7.581,0,0,0-3.221.745,7.352,7.352,0,0,0-2.4,1.8l0,0a7.652,7.652,0,0,0-.815,1.1l0,.005a19.006,19.006,0,0,0-1.1,4.268l-.474.066a7.574,7.574,0,0,0-7.008-4.763h-.014A7.565,7.565,0,0,0,71.24,62l-.014.191-.014.174.014.163.014.147v6.064a7.562,7.562,0,0,0-15.02.255v.054l-.014.067-.025.474V69.9l.025.377v4.115l-.052-.028-9.2,5.7c-.269.186-.66.443-1.15.715a8.042,8.042,0,0,1-3.695,1.365c-2.415-.009-4.791-2.619-4.843-4.83a4.682,4.682,0,0,1,.172-1.275,5.049,5.049,0,0,1,2.7-3.148L51,66.166a32.939,32.939,0,0,1-3.966-3.83l-14.382,8.9a13.157,13.157,0,0,1-1.6,1c-1.99,1.089-2.267,1.366-3.4,1.233" transform="translate(0 0)" fill="#022e4c"/>
      <path id="Trazado_3988" data-name="Trazado 3988" d="M71.6,80.231a.18.18,0,0,0,.019.022c.036.04.073.078.111.114.067.063.133.124.2.183a.328.328,0,0,0,.047.036,4.6,4.6,0,0,1-.382-.355m-.1-.11c-.028-.031-.056-.062-.08-.1l.077.1.005.005,0-.005m-1.311-4.334c0,.047,0,.1,0,.152s0,.106.005.164.005.113.009.174V75.063s-.026.28-.017.724m-15,8.48v-.773s-.019.3,0,.773m0,0v-.773s-.019.3,0,.773M71.6,80.231a.18.18,0,0,0,.019.022c.036.04.073.078.111.114.067.063.133.124.2.183a.328.328,0,0,0,.047.036,4.6,4.6,0,0,1-.382-.355m-.1-.11c-.028-.031-.056-.062-.08-.1l.077.1.005.005,0-.005m-1.311-4.334c0,.047,0,.1,0,.152s0,.106.005.164.005.113.009.174V75.063s-.026.28-.017.724m9.663,1.271v.394l0-.422Zm.042-6.2v.717l.035-.632-.077,5.692.005.047.05-5.838ZM96.48,51.66l0,0v0Zm1.172,3.86c0,.039,0,.08.005.122l0-.069ZM55.186,84.266v-.773s-.019.3,0,.773m15-8.48c0,.047,0,.1,0,.152s0,.106.005.164.005.113.009.174V75.063s-.026.28-.017.724m1.41,4.444a.18.18,0,0,0,.019.022c.036.04.073.078.111.114.067.063.133.124.2.183a.328.328,0,0,0,.047.036,4.6,4.6,0,0,1-.382-.355m-.1-.11c-.028-.031-.056-.062-.08-.1l.077.1.005.005,0-.005M55.186,84.266v-.773s-.019.3,0,.773" transform="translate(3.727 3.49)" fill="#022e4c"/>
      <path id="Trazado_3989" data-name="Trazado 3989" d="M57.353,20.276v.014a1.045,1.045,0,0,1,.175-.175,2.021,2.021,0,0,0-.175.161m0,0v.014a1.045,1.045,0,0,1,.175-.175,2.021,2.021,0,0,0-.175.161m0,0v.014a1.045,1.045,0,0,1,.175-.175,2.021,2.021,0,0,0-.175.161m0,0v.014a1.045,1.045,0,0,1,.175-.175,2.021,2.021,0,0,0-.175.161m0,0v.014a1.045,1.045,0,0,1,.175-.175,2.021,2.021,0,0,0-.175.161M84.184,34.512c.108.025.217.052.325.066a2.027,2.027,0,0,0,.285.028,5.336,5.336,0,0,1-.61-.094M57.353,20.276v.014a1.045,1.045,0,0,1,.175-.175,2.021,2.021,0,0,0-.175.161m0,0v.014a1.045,1.045,0,0,1,.175-.175,2.021,2.021,0,0,0-.175.161m0,0v.014a1.045,1.045,0,0,1,.175-.175,2.021,2.021,0,0,0-.175.161" transform="translate(3.874 1.359)" fill="#022e4c"/>
    </g>
  </g>
</svg>
