<svg xmlns="http://www.w3.org/2000/svg" xmlns:xlink="http://www.w3.org/1999/xlink" width="101.442" height="112.203" viewBox="0 0 101.442 112.203">
  <defs>
    <clipPath id="clip-path">
      <rect id="Rectángulo_1717" data-name="Rectángulo 1717" width="101.442" height="112.203" fill="none"/>
    </clipPath>
  </defs>
  <g id="Grupo_2850" data-name="Grupo 2850" transform="translate(0 0)">
    <path id="Trazado_4019" data-name="Trazado 4019" d="M29.553,26.54H68.382l12.857,9.346,12.4,20.027L96.2,67.384l1.441,8.555V86.978L94.3,94.631l-8.98,4.132-18.573,2.183H29.6l-13.4-.975L8.191,95.966,3.856,88.035,2.051,78.623,3.856,64.337l3-9.76L11.644,43.9l4.286-3.563Z" transform="translate(0.687 8.894)" fill="#023f87"/>
    <path id="Trazado_4020" data-name="Trazado 4020" d="M2.186,62.33H99.432L97.892,76.709,92.6,83.658,84.334,87.43,67.188,89.678,44.335,89.53l-27.459-.338-8.3-3.077L5.656,82.637,2.594,76.709,1.65,69.286Z" transform="translate(0.553 20.888)" fill="#002f56"/>
    <path id="Trazado_4021" data-name="Trazado 4021" d="M39.331,35.54h4.525v4.541l3.486.8h2.637L52.4,41.918l-1.057,4.3v1.335H40.934L38,50.226l1.335,2.67,4.005,2.67,5.34,1.335L52.4,59.674l1.613,3.9v8.011l-4.005,2.67-4.005,3.069-1.335,3.606v1.335L43.336,83.6H40.181l-.85-1.335L38,78.264l-1.335-1.335H32.655l-2.417-1.335L28.65,71.588l2.67-4.005,2.67,1.335,2.67,1.335,4.515-.477,2.16-.858,1.335-2.67-1.335-1.335L38,62.242l-7.757-5.63L28.65,54.232v-5.34l2.67-4.005,5.34-2.67L38,38.21l-.263-2.67Z" transform="translate(9.601 11.91)" fill="#ffc10e"/>
    <path id="Trazado_4022" data-name="Trazado 4022" d="M22.038,1.909h45.77V8.8l-2.358,8.879-3.263,5.1-3.073,4.235-30.335.917L24.8,24.114,22.038,12.931,20.2,3.911Z" transform="translate(6.771 0.64)" fill="#023f87"/>
    <g id="Grupo_2849" data-name="Grupo 2849" transform="translate(0 0)">
      <g id="Grupo_2848" data-name="Grupo 2848" clip-path="url(#clip-path)">
        <path id="Trazado_4023" data-name="Trazado 4023" d="M69,25.254a2.144,2.144,0,0,0-.708-.134H32.81a2.158,2.158,0,0,0-.721.134C13.2,32.77.5,59.566.5,79.873c0,7.971,1.883,13.672,5.754,17.41,5.007,4.82,12.777,5.834,22.029,5.834,3.218,0,6.6-.12,10.093-.24,3.925-.147,7.984-.294,12.176-.294,3.258,0,6.435.067,9.519.12,14.686.294,27.37.547,34.553-6.5,4.019-3.939,5.981-9.813,5.981-17.971,0-19.439-12.083-45.22-31.6-52.977M60.14,99.5h-.254c-3.017-.067-6.142-.12-9.332-.12-4.259,0-8.344.147-12.283.28-3.471.12-6.822.24-9.973.24-8.545,0-15.608-.868-19.813-4.927-3.218-3.1-4.78-8.037-4.78-15.1,0-23.538,15.114-45.634,29.226-51.5l.254-.04,34.98.04C84.279,35.027,97.389,57.39,97.389,78.231c0,7.25-1.642,12.377-5.02,15.688-6.222,6.1-18.278,5.861-32.23,5.581" transform="translate(0.168 8.418)" fill="#022e4c"/>
        <path id="Trazado_4024" data-name="Trazado 4024" d="M69.426,24.807a2.675,2.675,0,0,0-.961-.187H32.977a2.621,2.621,0,0,0-.961.187C12.857,32.417,0,59.507,0,80.041c0,8.171,1.949,14.019,5.955,17.891,5.487,5.287,14.059,6.021,22.5,6.021,3.2,0,6.542-.12,10.12-.254,3.712-.134,7.9-.28,12.15-.28,3.351,0,6.769.067,9.519.12,14.82.294,27.637.547,35.02-6.689,4.152-4.085,6.182-10.107,6.182-18.451,0-19.653-12.243-45.741-32.016-53.592m-9.172,77.4c-2.75-.053-6.168-.12-9.533-.12-4.272,0-8.478.16-12.243.294-3.511.12-6.836.24-10.027.24-8.158,0-16.422-.681-21.562-5.648-3.738-3.6-5.554-9.146-5.554-16.929,0-20.094,12.523-46.582,31.162-53.992a1.231,1.231,0,0,1,.481-.093H68.465a1.125,1.125,0,0,1,.467.093c19.252,7.65,31.175,33.124,31.175,52.35,0,7.957-1.9,13.685-5.781,17.5-6.983,6.836-19.533,6.6-34.072,6.3" transform="translate(0 8.251)" fill="#022e4c"/>
        <path id="Trazado_4025" data-name="Trazado 4025" d="M67.976.5H20.566A1.94,1.94,0,0,0,18.63,2.449c0,8.425,3.378,20.748,9.025,26.8a1.972,1.972,0,0,0,1.415.614h30.4a1.972,1.972,0,0,0,1.415-.614c5.648-6.048,9.039-18.371,9.039-26.8A1.952,1.952,0,0,0,67.976.5M58.91,26.642H29.631l-.2-.24c-4.379-5.22-7.1-15.007-7.53-21.976l-.04-.708H66.694l-.053.708c-.427,6.969-3.151,16.756-7.53,21.976Z" transform="translate(6.243 0.168)" fill="#022e4c"/>
        <path id="Trazado_4026" data-name="Trazado 4026" d="M68.143,0H20.733a2.61,2.61,0,0,0-2.6,2.617c0,8.558,3.445,21.081,9.212,27.25a2.641,2.641,0,0,0,1.9.828h30.4a2.6,2.6,0,0,0,1.9-.828C67.3,23.7,70.76,11.162,70.76,2.617A2.621,2.621,0,0,0,68.143,0m-8.5,29.359h-30.4a1.274,1.274,0,0,1-.921-.4c-5.541-5.928-8.852-18.051-8.852-26.342a1.271,1.271,0,0,1,1.268-1.282h47.41a1.282,1.282,0,0,1,1.282,1.282c0,8.291-3.311,20.414-8.865,26.342a1.274,1.274,0,0,1-.921.4" transform="translate(6.076 0)" fill="#022e4c"/>
        <path id="Trazado_4027" data-name="Trazado 4027" d="M51.491,56.574c-.614-.32-1.549-.681-2.71-1.148A43.723,43.723,0,0,1,41.9,52.194a1.732,1.732,0,0,1-.935-1.709c.147-.587.961-.734,1.429-.761,3.485-.254,8.879,1.522,8.932,1.549a1.967,1.967,0,0,0,2.51-1.415l1.429-6.382a1.948,1.948,0,0,0-.841-2.056c-1.856-1.188-5.3-1.789-7.49-2.056V35.906A1.937,1.937,0,0,0,45,33.97H39.061a1.937,1.937,0,0,0-1.936,1.936v4.419c-6.916,1.963-10.28,6.662-9.493,13.351.868,7.356,10.6,10.494,12.537,11.055,4.045,1.148,3.9,1.816,3.685,2.75-.227,1-3.591,1.642-6.876.975a22.027,22.027,0,0,1-5.247-1.9,1.955,1.955,0,0,0-2.777,1.108l-2.23,6.956a1.947,1.947,0,0,0,.814,2.243c2.951,1.816,7.25,2.55,9.68,2.844v3.9a1.937,1.937,0,0,0,1.936,1.936H45.1a1.919,1.919,0,0,0,1.375-.574,1.938,1.938,0,0,0,.561-1.375L47,79.1A12.892,12.892,0,0,0,56.9,67.882c.04-.494.067-.975.067-1.429a10.892,10.892,0,0,0-5.474-9.88m2.2,11.015a9.664,9.664,0,0,1-8.732,8.6,1.278,1.278,0,0,0-1.175,1.268l.027,4.887H40.423V77.949a1.276,1.276,0,0,0-1.2-1.282,28.586,28.586,0,0,1-8.571-1.816l-.561-.227,1.482-4.566.668.267a24.762,24.762,0,0,0,4.1,1.282c3.792.774,9.76.507,10.654-3.418.948-4.206-2.563-5.581-5.928-6.542-3.565-1.028-9.72-3.925-10.24-8.344-.654-5.527,2.123-8.865,8.5-10.214a1.26,1.26,0,0,0,1-1.242V37.174h3.4v3.939A1.277,1.277,0,0,0,44.9,42.381a32.187,32.187,0,0,1,6.449,1.148l.574.187-.908,4.1-.681-.187a28.021,28.021,0,0,0-8.158-1.108A4.452,4.452,0,0,0,37.859,49.7a4.873,4.873,0,0,0,2.31,5.207,46.17,46.17,0,0,0,7.423,3.5c1.081.441,1.949.774,2.39,1.015.708.374,4.246,2.55,3.712,8.171" transform="translate(8.923 11.384)" fill="#022e4c"/>
        <path id="Trazado_4028" data-name="Trazado 4028" d="M51.966,56.154c-.641-.334-1.589-.708-2.764-1.188A42.97,42.97,0,0,1,42.434,51.8a1.17,1.17,0,0,1-.654-.975c.027-.08.28-.24.828-.267,3.324-.24,8.625,1.5,8.678,1.509a2.615,2.615,0,0,0,3.378-1.9l1.429-6.382a2.644,2.644,0,0,0-1.135-2.777c-1.762-1.121-4.766-1.736-7.183-2.069V36.073a2.6,2.6,0,0,0-2.6-2.6H39.229a2.6,2.6,0,0,0-2.6,2.6V40c-6.929,2.136-10.294,7.076-9.493,13.925.921,7.77,11.015,11.041,13.031,11.616,3.431.975,3.338,1.415,3.218,1.936-.267.441-2.977,1.135-6.1.494a20.906,20.906,0,0,1-5.06-1.829,2.618,2.618,0,0,0-3.725,1.5l-2.243,6.943A2.6,2.6,0,0,0,27.36,77.6c2.83,1.762,6.862,2.537,9.359,2.871v3.311a2.607,2.607,0,0,0,2.6,2.6h5.941a2.544,2.544,0,0,0,1.842-.774,2.585,2.585,0,0,0,.761-1.842l-.027-3.992a13.511,13.511,0,0,0,9.88-11.656c.761-8.077-4.66-11.375-5.754-11.963M56.4,68A12.228,12.228,0,0,1,47.013,78.61l-.507.12.027,5.033a1.3,1.3,0,0,1-.374.908,1.264,1.264,0,0,1-.895.374H39.323a1.268,1.268,0,0,1-1.268-1.268V79.291l-.6-.08a36.369,36.369,0,0,1-4.486-.814,17.712,17.712,0,0,1-4.9-1.936,1.263,1.263,0,0,1-.547-1.469l2.243-6.943a1.265,1.265,0,0,1,.734-.788,1.239,1.239,0,0,1,1.081.067,23.235,23.235,0,0,0,5.434,1.949c3.244.668,7.29.16,7.664-1.482.347-1.562-.147-2.4-4.152-3.538-1.869-.547-11.242-3.565-12.056-10.494-.761-6.369,2.363-10.734,9-12.63L37.961,41V36.073a1.259,1.259,0,0,1,1.268-1.268h5.941a1.268,1.268,0,0,1,1.268,1.268v4.045l.587.08c3.324.4,5.888,1.095,7.21,1.949a1.272,1.272,0,0,1,.547,1.348l-1.429,6.382a1.293,1.293,0,0,1-.614.828,1.26,1.26,0,0,1-1.028.093c-.053-.013-5.581-1.829-9.2-1.575-1.121.08-1.842.521-2.029,1.268a2.371,2.371,0,0,0,1.228,2.43,42.311,42.311,0,0,0,7,3.284c1.148.467,2.056.828,2.63,1.135C52.3,57.849,57.08,60.76,56.4,68" transform="translate(8.755 11.216)" fill="#022e4c"/>
        <path id="Trazado_4029" data-name="Trazado 4029" d="M67.15,62.065a1.335,1.335,0,0,1-1.332-1.275c-.762-16.871-14.33-27.214-14.467-27.316a1.335,1.335,0,1,1,1.6-2.138c.6.45,14.717,11.215,15.535,29.334a1.335,1.335,0,0,1-1.274,1.394H67.15" transform="translate(17.029 10.412)" fill="#fff"/>
        <path id="Trazado_4030" data-name="Trazado 4030" d="M47.985,18.756a1.337,1.337,0,0,1-1.135-2.039c.029-.048,2.965-4.841,2.733-9.166a1.334,1.334,0,0,1,2.665-.144c.28,5.174-2.989,10.494-3.128,10.718a1.334,1.334,0,0,1-1.135.63" transform="translate(15.633 2.06)" fill="#fff"/>
      </g>
    </g>
  </g>
</svg>
