<svg xmlns="http://www.w3.org/2000/svg" xmlns:xlink="http://www.w3.org/1999/xlink" width="148.565" height="98.57" viewBox="0 0 148.565 98.57">
  <defs>
    <clipPath id="clip-path">
      <rect id="Rectángulo_1720" data-name="Rectángulo 1720" width="148.565" height="98.57" fill="none"/>
    </clipPath>
  </defs>
  <g id="Grupo_2855" data-name="Grupo 2855" transform="translate(0 0)">
    <g id="Grupo_2854" data-name="Grupo 2854" transform="translate(0 0)" clip-path="url(#clip-path)">
      <path id="Trazado_4036" data-name="Trazado 4036" d="M13.875,43.852,19.5,46.96h5.05s5.23,1.786,7.677,1.786,7.506-2.344,8.035-1.784,4.115-1.452,4.115-1.452l2.244-1.658,4.987,3.928s1.281,4.464,2.573,4.551S55.742,59.9,55.742,59.9l3.407,7.2v6.305l-3.407.935H1.732L.415,69.548l3.7-7.178,1.977-5.8,3.148-6.546Z" transform="translate(0.093 9.805)" fill="#023f87"/>
      <path id="Trazado_4037" data-name="Trazado 4037" d="M84.875,43.852,90.5,46.96h5.05s5.23,1.786,7.677,1.786,7.506-2.344,8.035-1.784,4.115-1.452,4.115-1.452l2.244-1.658,4.987,3.928s1.281,4.464,2.573,4.551,1.558,7.567,1.558,7.567l3.407,7.2v6.305l-3.407.935H72.732l-1.317-4.793,3.7-7.178,1.977-5.8,3.148-6.546Z" transform="translate(15.969 9.805)" fill="#023f87"/>
      <path id="Trazado_4038" data-name="Trazado 4038" d="M49.875,53.852,55.5,56.96h5.05s5.23,1.786,7.677,1.786,7.506-2.344,8.035-1.784,4.115-1.452,4.115-1.452l2.244-1.658,4.987,3.928s1.281,4.464,2.573,4.551S91.742,69.9,91.742,69.9l3.407,7.2v6.305l-3.407.935H37.732l-1.317-4.793,3.7-7.178,1.977-5.8,3.148-6.546Z" transform="translate(8.143 12.041)" fill="#ffc10e"/>
      <path id="Trazado_4039" data-name="Trazado 4039" d="M85.018,32.653a20.8,20.8,0,1,1-20.8-20.8,20.8,20.8,0,0,1,20.8,20.8" transform="translate(9.708 2.65)" fill="#ffc10e"/>
      <path id="Trazado_4040" data-name="Trazado 4040" d="M50.018,23.653a20.8,20.8,0,1,1-20.8-20.8,20.8,20.8,0,0,1,20.8,20.8" transform="translate(1.882 0.637)" fill="#023f87"/>
      <path id="Trazado_4041" data-name="Trazado 4041" d="M121.018,23.653a20.8,20.8,0,1,1-20.8-20.8,20.8,20.8,0,0,1,20.8,20.8" transform="translate(17.758 0.637)" fill="#023f87"/>
      <path id="Trazado_4042" data-name="Trazado 4042" d="M148.554,75.418c.029-.881.562-21.731-12.509-33.7a2.57,2.57,0,0,0-3.3-.142c-.151.116-15.358,11.537-29.506.012a2.568,2.568,0,0,0-3.31.053,38.564,38.564,0,0,0-8.071,11.105,2.575,2.575,0,0,0-2.584.312c-.625.472-15.431,11.486-29.511.016a2.568,2.568,0,0,0-2.4-.45,34.186,34.186,0,0,0-7.807-10.906,2.567,2.567,0,0,0-3.3-.142c-.152.116-15.354,11.537-29.506.012a2.57,2.57,0,0,0-3.311.053C12.9,42.1.316,53.286,0,75.308a2.576,2.576,0,0,0,2.571,2.608l41.305-.007a54.793,54.793,0,0,0-.863,8.886A2.568,2.568,0,0,0,45.586,89.4l56.921-.011a2.576,2.576,0,0,0,2.572-2.485,53.659,53.659,0,0,0-.66-8.995l41.565-.006a2.573,2.573,0,0,0,2.57-2.488m-103.5-2.653-39.8.01c.907-13.834,7.247-22.5,10.138-25.78,13.45,9.385,27.175,2.866,32.1-.1a31.1,31.1,0,0,1,5.9,9.531,46.392,46.392,0,0,0-8.333,16.338m3.207,11.5c.908-13.834,7.25-22.5,10.14-25.778,13.45,9.383,27.175,2.864,32.1-.1C98.145,66.594,99.613,79,99.883,84.25ZM103.4,72.77a41.757,41.757,0,0,0-7.644-16.161,39.564,39.564,0,0,1,6.12-9.614c13.452,9.385,27.179,2.866,32.1-.1,7.646,8.209,9.113,20.618,9.385,25.867Z" transform="translate(0 9.169)" fill="#022e4c"/>
      <path id="Trazado_4043" data-name="Trazado 4043" d="M116.3,0A24.324,24.324,0,0,0,92.2,21.151a24.271,24.271,0,0,0-36.579-2.524,26.226,26.226,0,0,0-1.779,2A24.327,24.327,0,1,0,29.812,48.679h.006a24.159,24.159,0,0,0,17.2-7.14,25.086,25.086,0,0,0,1.78-2A24.357,24.357,0,0,0,72.826,60.165h.006a24.325,24.325,0,0,0,24.1-21.149,24.293,24.293,0,0,0,19.37,9.663h.006A24.339,24.339,0,1,0,116.3,0M43.381,37.9a19.051,19.051,0,0,1-13.562,5.631h-.006A19.226,19.226,0,1,1,43.381,37.9M86.393,49.39a19.039,19.039,0,0,1-13.561,5.634h-.006A19.232,19.232,0,1,1,86.393,49.39M129.871,37.9a19.051,19.051,0,0,1-13.562,5.631H116.3A19.226,19.226,0,1,1,129.871,37.9" transform="translate(1.223 0)" fill="#022e4c"/>
      <path id="Trazado_4044" data-name="Trazado 4044" d="M66.224,19.428s7.575,3.131,6.352,13.449" transform="translate(14.808 4.344)" fill="none" stroke="#fff" stroke-linecap="round" stroke-width="3"/>
      <path id="Trazado_4045" data-name="Trazado 4045" d="M72.514,60.781A25.939,25.939,0,0,1,77.287,75.5" transform="translate(16.215 13.591)" fill="none" stroke="#fff" stroke-linecap="round" stroke-width="3"/>
    </g>
  </g>
</svg>
