<svg id="Grupo_2866" data-name="Grupo 2866" xmlns="http://www.w3.org/2000/svg" xmlns:xlink="http://www.w3.org/1999/xlink" width="139.224" height="133.525" viewBox="0 0 139.224 133.525">
  <defs>
    <clipPath id="clip-path">
      <rect id="Rectángulo_1729" data-name="Rectángulo 1729" width="139.224" height="133.525" fill="none"/>
    </clipPath>
  </defs>
  <g id="Grupo_2865" data-name="Grupo 2865" clip-path="url(#clip-path)">
    <path id="Trazado_4071" data-name="Trazado 4071" d="M111.343,87.772A61.073,61.073,0,0,1,9.382,48.739l.706-.092c1.12-.138,2.239-.184,3.1-.215h.153l.153-.015L24.458,47.19A43.859,43.859,0,0,0,37.679,75.119a45.949,45.949,0,0,0,62.913,1.9Z" transform="translate(5.007 25.186)" fill="#023f87"/>
    <path id="Trazado_4072" data-name="Trazado 4072" d="M26.2,48.963A43.86,43.86,0,0,0,39.426,76.892a45.947,45.947,0,0,0,62.911,1.9l10.751,10.751A61.074,61.074,0,0,1,11.127,50.514c.232-.031.475-.061.706-.094,1.121-.138,2.241-.183,3.1-.213h.153l.155-.017Zm4.192-5.1-4.7.526L14.842,45.606l-.075,0c-.738.029-2.11.077-3.5.247l-.377.049-.373.049-4.411.59.44,4.426A65.688,65.688,0,0,0,116.194,92.941l3.551-3.247-3.4-3.4L105.592,75.541l-3.067-3.067-3.242,2.882a41.35,41.35,0,0,1-56.6-1.716A39.394,39.394,0,0,1,30.789,48.581Z" transform="translate(3.26 23.411)" fill="#022e4c"/>
    <path id="Trazado_4073" data-name="Trazado 4073" d="M123.041,60.437c-5.031.813-10.076,1.61-15.107,2.439A45.908,45.908,0,0,0,29.608,31.619a43.782,43.782,0,0,0-3.773,4.325L15.022,25.116c1.212-1.457,2.485-2.868,3.85-4.218a61.082,61.082,0,0,1,104.17,39.539" transform="translate(8.017 1.601)" fill="#023f87"/>
    <path id="Trazado_4074" data-name="Trazado 4074" d="M64.24,4.6a61.086,61.086,0,0,1,60.965,57.437c-5.031.813-10.076,1.61-15.107,2.439A45.908,45.908,0,0,0,31.772,33.22,43.782,43.782,0,0,0,28,37.545L17.186,26.717c1.212-1.457,2.485-2.868,3.85-4.218A60.633,60.633,0,0,1,64.24,4.6m0-4.6A65.224,65.224,0,0,0,17.78,19.248c-1.382,1.367-2.739,2.854-4.132,4.528L10.967,27l2.963,2.968L24.743,40.8l3.71,3.715,3.2-4.164a39.183,39.183,0,0,1,3.376-3.874A41.271,41.271,0,0,1,105.5,64.591l.13,5.285,5.216-.859q4.907-.807,9.823-1.589l5.271-.847,4.106-.664-.247-4.152A65.686,65.686,0,0,0,64.24,0" transform="translate(5.853)" fill="#022e4c"/>
    <path id="Trazado_4075" data-name="Trazado 4075" d="M20.352,44.582l-1.814.046v0Z" transform="translate(9.893 23.794)" fill="#5a6e7e"/>
    <path id="Trazado_4076" data-name="Trazado 4076" d="M8.879,14.918,4.033,47.708A3.014,3.014,0,0,0,7.463,51.13l32.7-4.934a3.014,3.014,0,0,0,1.681-5.112L31.718,30.952,20.9,20.137l-6.911-6.909a3.013,3.013,0,0,0-5.112,1.69" transform="translate(2.134 6.587)" fill="#ffc10e"/>
    <path id="Trazado_4077" data-name="Trazado 4077" d="M14.012,14.476a2.963,2.963,0,0,1,2.115.886l6.911,6.909L33.854,33.087,43.985,43.219A3.014,3.014,0,0,1,42.3,48.331L9.6,53.263a2.929,2.929,0,0,1-.459.035,3.016,3.016,0,0,1-2.974-3.455l4.847-32.791a3.008,3.008,0,0,1,3-2.577m0-6.135a9.1,9.1,0,0,0-9.067,7.814L.1,48.946A9.151,9.151,0,0,0,9.141,59.433a9.366,9.366,0,0,0,1.373-.1l32.7-4.934a9.149,9.149,0,0,0,5.1-15.517L38.191,28.75,27.375,17.933l-6.911-6.909a9.07,9.07,0,0,0-6.452-2.682" transform="translate(0 4.452)" fill="#022e4c"/>
    <path id="Trazado_4078" data-name="Trazado 4078" d="M72.52,73.973,83.267,84.719,89.2,90.656a3.617,3.617,0,0,0,6.135-2.018l4.633-30.716a3.618,3.618,0,0,0-4.106-4.12l-30.8,4.552a3.619,3.619,0,0,0-2.029,6.138Z" transform="translate(33.077 28.694)" fill="#ffc10e"/>
    <path id="Trazado_4079" data-name="Trazado 4079" d="M98.541,55.9a3.618,3.618,0,0,1,3.566,4.158L97.475,90.773a3.611,3.611,0,0,1-3.6,3.081,3.561,3.561,0,0,1-2.54-1.063L85.4,86.853,74.655,76.108l-9.48-9.481A3.617,3.617,0,0,1,67.2,60.49L98,55.938a3.6,3.6,0,0,1,.54-.04m0-6.135a9.818,9.818,0,0,0-1.437.106l-30.8,4.552a9.753,9.753,0,0,0-5.471,16.544l9.481,9.48L81.064,91.192,87,97.129a9.749,9.749,0,0,0,16.54-5.442l4.633-30.716a9.754,9.754,0,0,0-9.633-11.208" transform="translate(30.941 26.559)" fill="#022e4c"/>
    <line id="Línea_2" data-name="Línea 2" x1="3.587" y2="19.673" transform="translate(123.958 90.622)" fill="none" stroke="#fff" stroke-linecap="round" stroke-width="4"/>
    <line id="Línea_3" data-name="Línea 3" y1="1.534" x2="19.938" transform="translate(16.091 49.079)" fill="none" stroke="#fff" stroke-linecap="round" stroke-width="4"/>
  </g>
</svg>
