<svg xmlns="http://www.w3.org/2000/svg" xmlns:xlink="http://www.w3.org/1999/xlink" width="99.881" height="101.396" viewBox="0 0 99.881 101.396">
  <defs>
    <clipPath id="clip-path">
      <rect id="Rectángulo_1716" data-name="Rectángulo 1716" width="99.881" height="101.396" fill="none"/>
    </clipPath>
  </defs>
  <g id="Grupo_2847" data-name="Grupo 2847" transform="translate(0 0)">
    <g id="Grupo_2846" data-name="Grupo 2846" transform="translate(0 0)" clip-path="url(#clip-path)">
      <path id="Trazado_4001" data-name="Trazado 4001" d="M90.524,83.466H7.187A3.787,3.787,0,0,1,3.4,79.679V72.707A3.787,3.787,0,0,1,7.187,68.92H90.524a3.787,3.787,0,0,1,3.787,3.787v6.972a3.787,3.787,0,0,1-3.787,3.787" transform="translate(0.721 14.621)" fill="#023f87"/>
      <path id="Trazado_4002" data-name="Trazado 4002" d="M92.1,82.193H6.036a3.636,3.636,0,1,1,0-7.273H92.1a3.636,3.636,0,0,1,0,7.273" transform="translate(0.509 15.894)" fill="#002f56"/>
      <rect id="Rectángulo_1714" data-name="Rectángulo 1714" width="8.485" height="78.79" transform="translate(7.758 3.539)" fill="#023f87"/>
      <rect id="Rectángulo_1715" data-name="Rectángulo 1715" width="8.485" height="78.79" transform="translate(82.911 3.539)" fill="#023f87"/>
      <path id="Trazado_4003" data-name="Trazado 4003" d="M28.946,18.193a7.273,7.273,0,1,1-7.273-7.273,7.272,7.272,0,0,1,7.273,7.273" transform="translate(3.055 2.317)" fill="#ffc10e"/>
      <path id="Trazado_4004" data-name="Trazado 4004" d="M41.946,17.193A7.273,7.273,0,1,1,34.673,9.92a7.272,7.272,0,0,1,7.273,7.273" transform="translate(5.813 2.105)" fill="#ffc10e"/>
      <path id="Trazado_4005" data-name="Trazado 4005" d="M69.946,17.193A7.273,7.273,0,1,1,62.673,9.92a7.272,7.272,0,0,1,7.273,7.273" transform="translate(11.753 2.105)" fill="#ffc10e"/>
      <path id="Trazado_4006" data-name="Trazado 4006" d="M69.946,35.193a7.273,7.273,0,1,1-7.273-7.273,7.272,7.272,0,0,1,7.273,7.273" transform="translate(11.753 5.923)" fill="#da2128"/>
      <path id="Trazado_4007" data-name="Trazado 4007" d="M55.946,35.193a7.273,7.273,0,1,1-7.273-7.273,7.272,7.272,0,0,1,7.273,7.273" transform="translate(8.783 5.923)" fill="#da2128"/>
      <path id="Trazado_4008" data-name="Trazado 4008" d="M55.946,54.193a7.273,7.273,0,1,1-7.273-7.273,7.272,7.272,0,0,1,7.273,7.273" transform="translate(8.783 9.954)" fill="#ffc10e"/>
      <path id="Trazado_4009" data-name="Trazado 4009" d="M28.946,55.193a7.273,7.273,0,1,1-7.273-7.273,7.272,7.272,0,0,1,7.273,7.273" transform="translate(3.055 10.166)" fill="#ffc10e"/>
      <path id="Trazado_4010" data-name="Trazado 4010" d="M65.6,16.589A1.834,1.834,0,1,1,65.6,14a1.834,1.834,0,0,1,0,2.594" transform="translate(13.253 2.855)" fill="#fcfcfc"/>
      <path id="Trazado_4011" data-name="Trazado 4011" d="M37.6,16.589A1.834,1.834,0,1,1,37.6,14a1.834,1.834,0,0,1,0,2.594" transform="translate(7.313 2.855)" fill="#fcfcfc"/>
      <path id="Trazado_4012" data-name="Trazado 4012" d="M24.6,16.589A1.834,1.834,0,1,1,24.6,14a1.834,1.834,0,0,1,0,2.594" transform="translate(4.555 2.855)" fill="#fcfcfc"/>
      <path id="Trazado_4013" data-name="Trazado 4013" d="M50.6,33.589A1.834,1.834,0,1,1,50.6,31a1.834,1.834,0,0,1,0,2.594" transform="translate(10.071 6.462)" fill="#fcfcfc"/>
      <path id="Trazado_4014" data-name="Trazado 4014" d="M64.6,33.589A1.834,1.834,0,1,1,64.6,31a1.834,1.834,0,0,1,0,2.594" transform="translate(13.041 6.462)" fill="#fcfcfc"/>
      <path id="Trazado_4015" data-name="Trazado 4015" d="M50.6,53.589A1.834,1.834,0,1,1,50.6,51a1.834,1.834,0,0,1,0,2.594" transform="translate(10.071 10.705)" fill="#fcfcfc"/>
      <path id="Trazado_4016" data-name="Trazado 4016" d="M24.6,53.589A1.834,1.834,0,1,1,24.6,51a1.834,1.834,0,0,1,0,2.594" transform="translate(4.555 10.705)" fill="#fcfcfc"/>
      <path id="Trazado_4017" data-name="Trazado 4017" d="M93.123,81.9V7.485a6.485,6.485,0,0,0-12.97,0v4.364A9.884,9.884,0,0,0,64.2,19.025H50.468a9.889,9.889,0,0,0-17.867-5.2A9.859,9.859,0,0,0,18.54,11.849V7.485a6.491,6.491,0,0,0-12.982,0V82.323a9.523,9.523,0,0,0,4.97,17.649h78.4A9.522,9.522,0,0,0,93.123,81.9M84,7.485a2.649,2.649,0,1,1,5.3,0V80.929c-.121,0-.242-.012-.364-.012H84Zm-9.915,6.1a6.073,6.073,0,1,1-6.073,6.073,6.076,6.076,0,0,1,6.073-6.073m-33.492,0a6.073,6.073,0,1,1-6.061,6.073,6.076,6.076,0,0,1,6.061-6.073m-15.976,0a6.084,6.084,0,0,1,6.073,6.073v.012a6.073,6.073,0,1,1-6.073-6.085M18.54,27.473A9.859,9.859,0,0,0,32.6,25.5,9.9,9.9,0,0,0,50.419,20.94H64.262a9.884,9.884,0,0,0,15.891,6.533v5.685a9.878,9.878,0,0,0-14.825,3.176,9.9,9.9,0,0,0-18.631,4H18.54Zm61.613,13.5A6.073,6.073,0,1,1,74.08,34.9a6.066,6.066,0,0,1,6.073,6.073m-17.5,0A6.073,6.073,0,1,1,56.577,34.9a6.073,6.073,0,0,1,6.073,6.073M18.54,42.249H46.759a9.9,9.9,0,0,0,18.57,3.358,9.878,9.878,0,0,0,14.825,3.176V63.607H66.444a9.913,9.913,0,0,0-19.734,0H34.48a9.933,9.933,0,0,0-9.867-8.958,9.827,9.827,0,0,0-6.073,2.1ZM62.65,64.565a6.073,6.073,0,1,1-6.073-6.073,6.084,6.084,0,0,1,6.073,6.073M24.613,58.492a6.073,6.073,0,1,1-6.073,6.073,6.084,6.084,0,0,1,6.073-6.073M18.54,72.383a9.827,9.827,0,0,0,6.073,2.1,9.933,9.933,0,0,0,9.867-8.958H46.71a9.913,9.913,0,0,0,19.734,0H80.153V80.917H18.54ZM9.4,7.485a2.649,2.649,0,1,1,5.3,0V80.917h-4.17A8.661,8.661,0,0,0,9.4,80.99ZM88.929,96.141h-78.4a5.691,5.691,0,0,1,0-11.382h78.4a5.691,5.691,0,0,1,0,11.382" transform="translate(0.212 0.212)" fill="#022e4c"/>
      <path id="Trazado_4018" data-name="Trazado 4018" d="M74.293,29.782a9.918,9.918,0,0,1-9.818-8.63H50.631A9.9,9.9,0,0,1,32.813,25.71a9.859,9.859,0,0,1-14.061,1.976V40.546H46.91a9.9,9.9,0,0,1,18.631-4A9.878,9.878,0,0,1,80.365,33.37V27.685a9.827,9.827,0,0,1-6.073,2.1m-8.752,4.546a11.11,11.11,0,0,0-19.71,5.006H19.964V29.879a10.955,10.955,0,0,0,4.861,1.115,11.154,11.154,0,0,0,7.988-3.406,11.1,11.1,0,0,0,18.825-5.224H63.456A11.166,11.166,0,0,0,71.1,30.522a11.223,11.223,0,0,0-5.564,3.806m13.612-3.139a10.276,10.276,0,0,0-1.661-.655,11.583,11.583,0,0,0,1.661-.667Zm-4.861,19.9a9.919,9.919,0,0,1-8.752-5.273,9.9,9.9,0,0,1-18.57-3.358H18.752v14.5a9.827,9.827,0,0,1,6.073-2.1,9.933,9.933,0,0,1,9.867,8.958H46.922a9.913,9.913,0,0,1,19.734,0H80.365V49a9.827,9.827,0,0,1-6.073,2.1m4.861,11.515H67.7a11.122,11.122,0,0,0-21.819,0H35.734A11.081,11.081,0,0,0,24.825,53.65a10.966,10.966,0,0,0-4.861,1.127v-11.1H45.953a11.115,11.115,0,0,0,19.588,4.364A11.1,11.1,0,0,0,74.293,52.3a10.8,10.8,0,0,0,4.861-1.127Zm-12.5,3.127a9.913,9.913,0,0,1-19.734,0H34.692a9.933,9.933,0,0,1-9.867,8.958,9.827,9.827,0,0,1-6.073-2.1v8.534H80.365V65.735Zm12.5,14.182H19.964v-5.14A10.966,10.966,0,0,0,24.825,75.9a11.081,11.081,0,0,0,10.909-8.958H45.88a11.122,11.122,0,0,0,21.819,0H79.153ZM74.293,29.782a9.918,9.918,0,0,1-9.818-8.63H50.631A9.9,9.9,0,0,1,32.813,25.71a9.859,9.859,0,0,1-14.061,1.976V40.546H46.91a9.9,9.9,0,0,1,18.631-4A9.878,9.878,0,0,1,80.365,33.37V27.685a9.827,9.827,0,0,1-6.073,2.1m-8.752,4.546a11.11,11.11,0,0,0-19.71,5.006H19.964V29.879a10.955,10.955,0,0,0,4.861,1.115,11.154,11.154,0,0,0,7.988-3.406,11.1,11.1,0,0,0,18.825-5.224H63.456A11.166,11.166,0,0,0,71.1,30.522a11.223,11.223,0,0,0-5.564,3.806m13.612-3.139a10.276,10.276,0,0,0-1.661-.655,11.583,11.583,0,0,0,1.661-.667Zm-4.861,19.9a9.919,9.919,0,0,1-8.752-5.273,9.9,9.9,0,0,1-18.57-3.358H18.752v14.5a9.827,9.827,0,0,1,6.073-2.1,9.933,9.933,0,0,1,9.867,8.958H46.922a9.913,9.913,0,0,1,19.734,0H80.365V49a9.827,9.827,0,0,1-6.073,2.1m4.861,11.515H67.7a11.122,11.122,0,0,0-21.819,0H35.734A11.081,11.081,0,0,0,24.825,53.65a10.966,10.966,0,0,0-4.861,1.127v-11.1H45.953a11.115,11.115,0,0,0,19.588,4.364A11.1,11.1,0,0,0,74.293,52.3a10.8,10.8,0,0,0,4.861-1.127Zm-12.5,3.127a9.913,9.913,0,0,1-19.734,0H34.692a9.933,9.933,0,0,1-9.867,8.958,9.827,9.827,0,0,1-6.073-2.1v8.534H80.365V65.735Zm12.5,14.182H19.964v-5.14A10.966,10.966,0,0,0,24.825,75.9a11.081,11.081,0,0,0,10.909-8.958H45.88a11.122,11.122,0,0,0,21.819,0H79.153ZM74.293,29.782a9.918,9.918,0,0,1-9.818-8.63H50.631A9.9,9.9,0,0,1,32.813,25.71a9.859,9.859,0,0,1-14.061,1.976V40.546H46.91a9.9,9.9,0,0,1,18.631-4A9.878,9.878,0,0,1,80.365,33.37V27.685a9.827,9.827,0,0,1-6.073,2.1m-8.752,4.546a11.11,11.11,0,0,0-19.71,5.006H19.964V29.879a10.955,10.955,0,0,0,4.861,1.115,11.154,11.154,0,0,0,7.988-3.406,11.1,11.1,0,0,0,18.825-5.224H63.456A11.166,11.166,0,0,0,71.1,30.522a11.223,11.223,0,0,0-5.564,3.806m13.612-3.139a10.276,10.276,0,0,0-1.661-.655,11.583,11.583,0,0,0,1.661-.667Zm-4.861,19.9a9.919,9.919,0,0,1-8.752-5.273,9.9,9.9,0,0,1-18.57-3.358H18.752v14.5a9.827,9.827,0,0,1,6.073-2.1,9.933,9.933,0,0,1,9.867,8.958H46.922a9.913,9.913,0,0,1,19.734,0H80.365V49a9.827,9.827,0,0,1-6.073,2.1m4.861,11.515H67.7a11.122,11.122,0,0,0-21.819,0H35.734A11.081,11.081,0,0,0,24.825,53.65a10.966,10.966,0,0,0-4.861,1.127v-11.1H45.953a11.115,11.115,0,0,0,19.588,4.364A11.1,11.1,0,0,0,74.293,52.3a10.8,10.8,0,0,0,4.861-1.127Zm-12.5,3.127a9.913,9.913,0,0,1-19.734,0H34.692a9.933,9.933,0,0,1-9.867,8.958,9.827,9.827,0,0,1-6.073-2.1v8.534H80.365V65.735Zm12.5,14.182H19.964v-5.14A10.966,10.966,0,0,0,24.825,75.9a11.081,11.081,0,0,0,10.909-8.958H45.88a11.122,11.122,0,0,0,21.819,0H79.153Zm-12.5-14.182a9.913,9.913,0,0,1-19.734,0H34.692a9.933,9.933,0,0,1-9.867,8.958,9.827,9.827,0,0,1-6.073-2.1v8.534H80.365V65.735Zm12.5,14.182H19.964v-5.14A10.966,10.966,0,0,0,24.825,75.9a11.081,11.081,0,0,0,10.909-8.958H45.88a11.122,11.122,0,0,0,21.819,0H79.153ZM74.293,51.092a9.919,9.919,0,0,1-8.752-5.273,9.9,9.9,0,0,1-18.57-3.358H18.752v14.5a9.827,9.827,0,0,1,6.073-2.1,9.933,9.933,0,0,1,9.867,8.958H46.922a9.913,9.913,0,0,1,19.734,0H80.365V49a9.827,9.827,0,0,1-6.073,2.1m4.861,11.515H67.7a11.122,11.122,0,0,0-21.819,0H35.734A11.081,11.081,0,0,0,24.825,53.65a10.966,10.966,0,0,0-4.861,1.127v-11.1H45.953a11.115,11.115,0,0,0,19.588,4.364A11.1,11.1,0,0,0,74.293,52.3a10.8,10.8,0,0,0,4.861-1.127ZM74.293,29.782a9.918,9.918,0,0,1-9.818-8.63H50.631A9.9,9.9,0,0,1,32.813,25.71a9.859,9.859,0,0,1-14.061,1.976V40.546H46.91a9.9,9.9,0,0,1,18.631-4A9.878,9.878,0,0,1,80.365,33.37V27.685a9.827,9.827,0,0,1-6.073,2.1m-8.752,4.546a11.11,11.11,0,0,0-19.71,5.006H19.964V29.879a10.955,10.955,0,0,0,4.861,1.115,11.154,11.154,0,0,0,7.988-3.406,11.1,11.1,0,0,0,18.825-5.224H63.456A11.166,11.166,0,0,0,71.1,30.522a11.223,11.223,0,0,0-5.564,3.806m13.612-3.139a10.276,10.276,0,0,0-1.661-.655,11.583,11.583,0,0,0,1.661-.667Zm-4.861-1.406a9.918,9.918,0,0,1-9.818-8.63H50.631A9.9,9.9,0,0,1,32.813,25.71a9.859,9.859,0,0,1-14.061,1.976V40.546H46.91a9.9,9.9,0,0,1,18.631-4A9.878,9.878,0,0,1,80.365,33.37V27.685a9.827,9.827,0,0,1-6.073,2.1m-8.752,4.546a11.11,11.11,0,0,0-19.71,5.006H19.964V29.879a10.955,10.955,0,0,0,4.861,1.115,11.154,11.154,0,0,0,7.988-3.406,11.1,11.1,0,0,0,18.825-5.224H63.456A11.166,11.166,0,0,0,71.1,30.522a11.223,11.223,0,0,0-5.564,3.806m13.612-3.139a10.276,10.276,0,0,0-1.661-.655,11.583,11.583,0,0,0,1.661-.667Zm-4.861,19.9a9.919,9.919,0,0,1-8.752-5.273,9.9,9.9,0,0,1-18.57-3.358H18.752v14.5a9.827,9.827,0,0,1,6.073-2.1,9.933,9.933,0,0,1,9.867,8.958H46.922a9.913,9.913,0,0,1,19.734,0H80.365V49a9.827,9.827,0,0,1-6.073,2.1m4.861,11.515H67.7a11.122,11.122,0,0,0-21.819,0H35.734A11.081,11.081,0,0,0,24.825,53.65a10.966,10.966,0,0,0-4.861,1.127v-11.1H45.953a11.115,11.115,0,0,0,19.588,4.364A11.1,11.1,0,0,0,74.293,52.3a10.8,10.8,0,0,0,4.861-1.127Zm-12.5,3.127a9.913,9.913,0,0,1-19.734,0H34.692a9.933,9.933,0,0,1-9.867,8.958,9.827,9.827,0,0,1-6.073-2.1v8.534H80.365V65.735Zm12.5,14.182H19.964v-5.14A10.966,10.966,0,0,0,24.825,75.9a11.081,11.081,0,0,0,10.909-8.958H45.88a11.122,11.122,0,0,0,21.819,0H79.153Zm-12.5-14.182a9.913,9.913,0,0,1-19.734,0H34.692a9.933,9.933,0,0,1-9.867,8.958,9.827,9.827,0,0,1-6.073-2.1v8.534H80.365V65.735Zm12.5,14.182H19.964v-5.14A10.966,10.966,0,0,0,24.825,75.9a11.081,11.081,0,0,0,10.909-8.958H45.88a11.122,11.122,0,0,0,21.819,0H79.153ZM74.293,51.092a9.919,9.919,0,0,1-8.752-5.273,9.9,9.9,0,0,1-18.57-3.358H18.752v14.5a9.827,9.827,0,0,1,6.073-2.1,9.933,9.933,0,0,1,9.867,8.958H46.922a9.913,9.913,0,0,1,19.734,0H80.365V49a9.827,9.827,0,0,1-6.073,2.1m4.861,11.515H67.7a11.122,11.122,0,0,0-21.819,0H35.734A11.081,11.081,0,0,0,24.825,53.65a10.966,10.966,0,0,0-4.861,1.127v-11.1H45.953a11.115,11.115,0,0,0,19.588,4.364A11.1,11.1,0,0,0,74.293,52.3a10.8,10.8,0,0,0,4.861-1.127ZM74.293,29.782a9.918,9.918,0,0,1-9.818-8.63H50.631A9.9,9.9,0,0,1,32.813,25.71a9.859,9.859,0,0,1-14.061,1.976V40.546H46.91a9.9,9.9,0,0,1,18.631-4A9.878,9.878,0,0,1,80.365,33.37V27.685a9.827,9.827,0,0,1-6.073,2.1m-8.752,4.546a11.11,11.11,0,0,0-19.71,5.006H19.964V29.879a10.955,10.955,0,0,0,4.861,1.115,11.154,11.154,0,0,0,7.988-3.406,11.1,11.1,0,0,0,18.825-5.224H63.456A11.166,11.166,0,0,0,71.1,30.522a11.223,11.223,0,0,0-5.564,3.806m13.612-3.139a10.276,10.276,0,0,0-1.661-.655,11.583,11.583,0,0,0,1.661-.667Zm-4.861-1.406a9.918,9.918,0,0,1-9.818-8.63H50.631A9.9,9.9,0,0,1,32.813,25.71a9.859,9.859,0,0,1-14.061,1.976V40.546H46.91a9.9,9.9,0,0,1,18.631-4A9.878,9.878,0,0,1,80.365,33.37V27.685a9.827,9.827,0,0,1-6.073,2.1m-8.752,4.546a11.11,11.11,0,0,0-19.71,5.006H19.964V29.879a10.955,10.955,0,0,0,4.861,1.115,11.154,11.154,0,0,0,7.988-3.406,11.1,11.1,0,0,0,18.825-5.224H63.456A11.166,11.166,0,0,0,71.1,30.522a11.223,11.223,0,0,0-5.564,3.806m13.612-3.139a10.276,10.276,0,0,0-1.661-.655,11.583,11.583,0,0,0,1.661-.667Zm-4.861,19.9a9.919,9.919,0,0,1-8.752-5.273,9.9,9.9,0,0,1-18.57-3.358H18.752v14.5a9.827,9.827,0,0,1,6.073-2.1,9.933,9.933,0,0,1,9.867,8.958H46.922a9.913,9.913,0,0,1,19.734,0H80.365V49a9.827,9.827,0,0,1-6.073,2.1m4.861,11.515H67.7a11.122,11.122,0,0,0-21.819,0H35.734A11.081,11.081,0,0,0,24.825,53.65a10.966,10.966,0,0,0-4.861,1.127v-11.1H45.953a11.115,11.115,0,0,0,19.588,4.364A11.1,11.1,0,0,0,74.293,52.3a10.8,10.8,0,0,0,4.861-1.127Zm-12.5,3.127a9.913,9.913,0,0,1-19.734,0H34.692a9.933,9.933,0,0,1-9.867,8.958,9.827,9.827,0,0,1-6.073-2.1v8.534H80.365V65.735Zm12.5,14.182H19.964v-5.14A10.966,10.966,0,0,0,24.825,75.9a11.081,11.081,0,0,0,10.909-8.958H45.88a11.122,11.122,0,0,0,21.819,0H79.153Zm-12.5-14.182a9.913,9.913,0,0,1-19.734,0H34.692a9.933,9.933,0,0,1-9.867,8.958,9.827,9.827,0,0,1-6.073-2.1v8.534H80.365V65.735Zm12.5,14.182H19.964v-5.14A10.966,10.966,0,0,0,24.825,75.9a11.081,11.081,0,0,0,10.909-8.958H45.88a11.122,11.122,0,0,0,21.819,0H79.153ZM74.293,51.092a9.919,9.919,0,0,1-8.752-5.273,9.9,9.9,0,0,1-18.57-3.358H18.752v14.5a9.827,9.827,0,0,1,6.073-2.1,9.933,9.933,0,0,1,9.867,8.958H46.922a9.913,9.913,0,0,1,19.734,0H80.365V49a9.827,9.827,0,0,1-6.073,2.1m4.861,11.515H67.7a11.122,11.122,0,0,0-21.819,0H35.734A11.081,11.081,0,0,0,24.825,53.65a10.966,10.966,0,0,0-4.861,1.127v-11.1H45.953a11.115,11.115,0,0,0,19.588,4.364A11.1,11.1,0,0,0,74.293,52.3a10.8,10.8,0,0,0,4.861-1.127ZM74.293,29.782a9.918,9.918,0,0,1-9.818-8.63H50.631A9.9,9.9,0,0,1,32.813,25.71a9.859,9.859,0,0,1-14.061,1.976V40.546H46.91a9.9,9.9,0,0,1,18.631-4A9.878,9.878,0,0,1,80.365,33.37V27.685a9.827,9.827,0,0,1-6.073,2.1m-8.752,4.546a11.11,11.11,0,0,0-19.71,5.006H19.964V29.879a10.955,10.955,0,0,0,4.861,1.115,11.154,11.154,0,0,0,7.988-3.406,11.1,11.1,0,0,0,18.825-5.224H63.456A11.166,11.166,0,0,0,71.1,30.522a11.223,11.223,0,0,0-5.564,3.806m13.612-3.139a10.276,10.276,0,0,0-1.661-.655,11.583,11.583,0,0,0,1.661-.667Zm-4.861-1.406a9.918,9.918,0,0,1-9.818-8.63H50.631A9.9,9.9,0,0,1,32.813,25.71a9.859,9.859,0,0,1-14.061,1.976V40.546H46.91a9.9,9.9,0,0,1,18.631-4A9.878,9.878,0,0,1,80.365,33.37V27.685a9.827,9.827,0,0,1-6.073,2.1m-8.752,4.546a11.11,11.11,0,0,0-19.71,5.006H19.964V29.879a10.955,10.955,0,0,0,4.861,1.115,11.154,11.154,0,0,0,7.988-3.406,11.1,11.1,0,0,0,18.825-5.224H63.456A11.166,11.166,0,0,0,71.1,30.522a11.223,11.223,0,0,0-5.564,3.806m13.612-3.139a10.276,10.276,0,0,0-1.661-.655,11.583,11.583,0,0,0,1.661-.667Zm-4.861,19.9a9.919,9.919,0,0,1-8.752-5.273,9.9,9.9,0,0,1-18.57-3.358H18.752v14.5a9.827,9.827,0,0,1,6.073-2.1,9.933,9.933,0,0,1,9.867,8.958H46.922a9.913,9.913,0,0,1,19.734,0H80.365V49a9.827,9.827,0,0,1-6.073,2.1m4.861,11.515H67.7a11.122,11.122,0,0,0-21.819,0H35.734A11.081,11.081,0,0,0,24.825,53.65a10.966,10.966,0,0,0-4.861,1.127v-11.1H45.953a11.115,11.115,0,0,0,19.588,4.364A11.1,11.1,0,0,0,74.293,52.3a10.8,10.8,0,0,0,4.861-1.127Zm-12.5,3.127a9.913,9.913,0,0,1-19.734,0H34.692a9.933,9.933,0,0,1-9.867,8.958,9.827,9.827,0,0,1-6.073-2.1v8.534H80.365V65.735Zm12.5,14.182H19.964v-5.14A10.966,10.966,0,0,0,24.825,75.9a11.081,11.081,0,0,0,10.909-8.958H45.88a11.122,11.122,0,0,0,21.819,0H79.153Zm-12.5-14.182a9.913,9.913,0,0,1-19.734,0H34.692a9.933,9.933,0,0,1-9.867,8.958,9.827,9.827,0,0,1-6.073-2.1v8.534H80.365V65.735Zm12.5,14.182H19.964v-5.14A10.966,10.966,0,0,0,24.825,75.9a11.081,11.081,0,0,0,10.909-8.958H45.88a11.122,11.122,0,0,0,21.819,0H79.153ZM74.293,51.092a9.919,9.919,0,0,1-8.752-5.273,9.9,9.9,0,0,1-18.57-3.358H18.752v14.5a9.827,9.827,0,0,1,6.073-2.1,9.933,9.933,0,0,1,9.867,8.958H46.922a9.913,9.913,0,0,1,19.734,0H80.365V49a9.827,9.827,0,0,1-6.073,2.1m4.861,11.515H67.7a11.122,11.122,0,0,0-21.819,0H35.734A11.081,11.081,0,0,0,24.825,53.65a10.966,10.966,0,0,0-4.861,1.127v-11.1H45.953a11.115,11.115,0,0,0,19.588,4.364A11.1,11.1,0,0,0,74.293,52.3a10.8,10.8,0,0,0,4.861-1.127ZM74.293,29.782a9.918,9.918,0,0,1-9.818-8.63H50.631A9.9,9.9,0,0,1,32.813,25.71a9.859,9.859,0,0,1-14.061,1.976V40.546H46.91a9.9,9.9,0,0,1,18.631-4A9.878,9.878,0,0,1,80.365,33.37V27.685a9.827,9.827,0,0,1-6.073,2.1m-8.752,4.546a11.11,11.11,0,0,0-19.71,5.006H19.964V29.879a10.955,10.955,0,0,0,4.861,1.115,11.154,11.154,0,0,0,7.988-3.406,11.1,11.1,0,0,0,18.825-5.224H63.456A11.166,11.166,0,0,0,71.1,30.522a11.223,11.223,0,0,0-5.564,3.806m13.612-3.139a10.276,10.276,0,0,0-1.661-.655,11.583,11.583,0,0,0,1.661-.667Zm-4.861-1.406a9.918,9.918,0,0,1-9.818-8.63H50.631A9.9,9.9,0,0,1,32.813,25.71a9.859,9.859,0,0,1-14.061,1.976V40.546H46.91a9.9,9.9,0,0,1,18.631-4A9.878,9.878,0,0,1,80.365,33.37V27.685a9.827,9.827,0,0,1-6.073,2.1m-8.752,4.546a11.11,11.11,0,0,0-19.71,5.006H19.964V29.879a10.955,10.955,0,0,0,4.861,1.115,11.154,11.154,0,0,0,7.988-3.406,11.1,11.1,0,0,0,18.825-5.224H63.456A11.166,11.166,0,0,0,71.1,30.522a11.223,11.223,0,0,0-5.564,3.806m13.612-3.139a10.276,10.276,0,0,0-1.661-.655,11.583,11.583,0,0,0,1.661-.667Zm-4.861,19.9a9.919,9.919,0,0,1-8.752-5.273,9.9,9.9,0,0,1-18.57-3.358H18.752v14.5a9.827,9.827,0,0,1,6.073-2.1,9.933,9.933,0,0,1,9.867,8.958H46.922a9.913,9.913,0,0,1,19.734,0H80.365V49a9.827,9.827,0,0,1-6.073,2.1m4.861,11.515H67.7a11.122,11.122,0,0,0-21.819,0H35.734A11.081,11.081,0,0,0,24.825,53.65a10.966,10.966,0,0,0-4.861,1.127v-11.1H45.953a11.115,11.115,0,0,0,19.588,4.364A11.1,11.1,0,0,0,74.293,52.3a10.8,10.8,0,0,0,4.861-1.127Zm-12.5,3.127a9.913,9.913,0,0,1-19.734,0H34.692a9.933,9.933,0,0,1-9.867,8.958,9.827,9.827,0,0,1-6.073-2.1v8.534H80.365V65.735Zm12.5,14.182H19.964v-5.14A10.966,10.966,0,0,0,24.825,75.9a11.081,11.081,0,0,0,10.909-8.958H45.88a11.122,11.122,0,0,0,21.819,0H79.153ZM56.789,74.693a9.933,9.933,0,0,1-9.867-8.958H34.692a9.933,9.933,0,0,1-9.867,8.958,9.827,9.827,0,0,1-6.073-2.1v8.534H80.365V65.735H66.656a9.933,9.933,0,0,1-9.867,8.958m22.364-7.746v12.97H19.964v-5.14A10.966,10.966,0,0,0,24.825,75.9a11.081,11.081,0,0,0,10.909-8.958H45.88a11.122,11.122,0,0,0,21.819,0ZM65.541,45.819a9.9,9.9,0,0,1-18.57-3.358H18.752v14.5a9.827,9.827,0,0,1,6.073-2.1,9.933,9.933,0,0,1,9.867,8.958H46.922a9.913,9.913,0,0,1,19.734,0H80.365V49a9.878,9.878,0,0,1-14.825-3.176M79.153,62.607H67.7a11.122,11.122,0,0,0-21.819,0H35.734A11.081,11.081,0,0,0,24.825,53.65a10.966,10.966,0,0,0-4.861,1.127v-11.1H45.953a11.115,11.115,0,0,0,19.588,4.364A11.1,11.1,0,0,0,74.293,52.3a10.8,10.8,0,0,0,4.861-1.127ZM74.293,29.782a9.918,9.918,0,0,1-9.818-8.63H50.631A9.9,9.9,0,0,1,32.813,25.71a9.859,9.859,0,0,1-14.061,1.976V40.546H46.91a9.9,9.9,0,0,1,18.631-4A9.878,9.878,0,0,1,80.365,33.37V27.685a9.827,9.827,0,0,1-6.073,2.1m-8.752,4.546a11.11,11.11,0,0,0-19.71,5.006H19.964V29.879a10.955,10.955,0,0,0,4.861,1.115,11.154,11.154,0,0,0,7.988-3.406,11.1,11.1,0,0,0,18.825-5.224H63.456A11.166,11.166,0,0,0,71.1,30.522a11.223,11.223,0,0,0-5.564,3.806m13.612-3.139a10.276,10.276,0,0,0-1.661-.655,11.583,11.583,0,0,0,1.661-.667ZM94.548,81.4V7.7a7.7,7.7,0,1,0-15.394,0v2.17a10.955,10.955,0,0,0-4.861-1.115,11.151,11.151,0,0,0-10.958,9.273H51.759a11.1,11.1,0,0,0-18.946-5.867,11.154,11.154,0,0,0-7.988-3.406,10.955,10.955,0,0,0-4.861,1.115V7.7a7.7,7.7,0,0,0-15.406,0V81.881A10.736,10.736,0,0,0,10.74,101.4h78.4a10.728,10.728,0,0,0,5.406-20m-5.406,18.788H10.74A9.523,9.523,0,0,1,5.77,82.535V7.7a6.491,6.491,0,0,1,12.982,0v4.364a9.859,9.859,0,0,1,14.061,1.976,9.889,9.889,0,0,1,17.867,5.2H64.414a9.884,9.884,0,0,1,15.952-7.176V7.7a6.485,6.485,0,0,1,12.97,0V82.111a9.522,9.522,0,0,1-4.194,18.073M56.789,74.693a9.933,9.933,0,0,1-9.867-8.958H34.692a9.933,9.933,0,0,1-9.867,8.958,9.827,9.827,0,0,1-6.073-2.1v8.534H80.365V65.735H66.656a9.933,9.933,0,0,1-9.867,8.958m22.364-7.746v12.97H19.964v-5.14A10.966,10.966,0,0,0,24.825,75.9a11.081,11.081,0,0,0,10.909-8.958H45.88a11.122,11.122,0,0,0,21.819,0ZM65.541,45.819a9.9,9.9,0,0,1-18.57-3.358H18.752v14.5a9.827,9.827,0,0,1,6.073-2.1,9.933,9.933,0,0,1,9.867,8.958H46.922a9.913,9.913,0,0,1,19.734,0H80.365V49a9.878,9.878,0,0,1-14.825-3.176M79.153,62.607H67.7a11.122,11.122,0,0,0-21.819,0H35.734A11.081,11.081,0,0,0,24.825,53.65a10.966,10.966,0,0,0-4.861,1.127v-11.1H45.953a11.115,11.115,0,0,0,19.588,4.364A11.1,11.1,0,0,0,74.293,52.3a10.8,10.8,0,0,0,4.861-1.127ZM64.474,21.152H50.631A9.9,9.9,0,0,1,32.813,25.71a9.859,9.859,0,0,1-14.061,1.976V40.546H46.91a9.9,9.9,0,0,1,18.631-4A9.878,9.878,0,0,1,80.365,33.37V27.685a9.884,9.884,0,0,1-15.891-6.533m1.067,13.176a11.11,11.11,0,0,0-19.71,5.006H19.964V29.879a10.955,10.955,0,0,0,4.861,1.115,11.154,11.154,0,0,0,7.988-3.406,11.1,11.1,0,0,0,18.825-5.224H63.456A11.166,11.166,0,0,0,71.1,30.522a11.223,11.223,0,0,0-5.564,3.806m13.612-4.461v1.321a10.276,10.276,0,0,0-1.661-.655,11.583,11.583,0,0,0,1.661-.667m-4.861-.085a9.918,9.918,0,0,1-9.818-8.63H50.631A9.9,9.9,0,0,1,32.813,25.71a9.859,9.859,0,0,1-14.061,1.976V40.546H46.91a9.9,9.9,0,0,1,18.631-4A9.878,9.878,0,0,1,80.365,33.37V27.685a9.827,9.827,0,0,1-6.073,2.1m-8.752,4.546a11.11,11.11,0,0,0-19.71,5.006H19.964V29.879a10.955,10.955,0,0,0,4.861,1.115,11.154,11.154,0,0,0,7.988-3.406,11.1,11.1,0,0,0,18.825-5.224H63.456A11.166,11.166,0,0,0,71.1,30.522a11.223,11.223,0,0,0-5.564,3.806m13.612-3.139a10.276,10.276,0,0,0-1.661-.655,11.583,11.583,0,0,0,1.661-.667Zm-4.861,19.9a9.919,9.919,0,0,1-8.752-5.273,9.9,9.9,0,0,1-18.57-3.358H18.752v14.5a9.827,9.827,0,0,1,6.073-2.1,9.933,9.933,0,0,1,9.867,8.958H46.922a9.913,9.913,0,0,1,19.734,0H80.365V49a9.827,9.827,0,0,1-6.073,2.1m4.861,11.515H67.7a11.122,11.122,0,0,0-21.819,0H35.734A11.081,11.081,0,0,0,24.825,53.65a10.966,10.966,0,0,0-4.861,1.127v-11.1H45.953a11.115,11.115,0,0,0,19.588,4.364A11.1,11.1,0,0,0,74.293,52.3a10.8,10.8,0,0,0,4.861-1.127Zm-12.5,3.127a9.913,9.913,0,0,1-19.734,0H34.692a9.933,9.933,0,0,1-9.867,8.958,9.827,9.827,0,0,1-6.073-2.1v8.534H80.365V65.735Zm12.5,14.182H19.964v-5.14A10.966,10.966,0,0,0,24.825,75.9a11.081,11.081,0,0,0,10.909-8.958H45.88a11.122,11.122,0,0,0,21.819,0H79.153Zm-12.5-14.182a9.913,9.913,0,0,1-19.734,0H34.692a9.933,9.933,0,0,1-9.867,8.958,9.827,9.827,0,0,1-6.073-2.1v8.534H80.365V65.735Zm12.5,14.182H19.964v-5.14A10.966,10.966,0,0,0,24.825,75.9a11.081,11.081,0,0,0,10.909-8.958H45.88a11.122,11.122,0,0,0,21.819,0H79.153ZM74.293,51.092a9.919,9.919,0,0,1-8.752-5.273,9.9,9.9,0,0,1-18.57-3.358H18.752v14.5a9.827,9.827,0,0,1,6.073-2.1,9.933,9.933,0,0,1,9.867,8.958H46.922a9.913,9.913,0,0,1,19.734,0H80.365V49a9.827,9.827,0,0,1-6.073,2.1m4.861,11.515H67.7a11.122,11.122,0,0,0-21.819,0H35.734A11.081,11.081,0,0,0,24.825,53.65a10.966,10.966,0,0,0-4.861,1.127v-11.1H45.953a11.115,11.115,0,0,0,19.588,4.364A11.1,11.1,0,0,0,74.293,52.3a10.8,10.8,0,0,0,4.861-1.127ZM74.293,29.782a9.918,9.918,0,0,1-9.818-8.63H50.631A9.9,9.9,0,0,1,32.813,25.71a9.859,9.859,0,0,1-14.061,1.976V40.546H46.91a9.9,9.9,0,0,1,18.631-4A9.878,9.878,0,0,1,80.365,33.37V27.685a9.827,9.827,0,0,1-6.073,2.1m-8.752,4.546a11.11,11.11,0,0,0-19.71,5.006H19.964V29.879a10.955,10.955,0,0,0,4.861,1.115,11.154,11.154,0,0,0,7.988-3.406,11.1,11.1,0,0,0,18.825-5.224H63.456A11.166,11.166,0,0,0,71.1,30.522a11.223,11.223,0,0,0-5.564,3.806m13.612-3.139a10.276,10.276,0,0,0-1.661-.655,11.583,11.583,0,0,0,1.661-.667Zm-4.861-1.406a9.918,9.918,0,0,1-9.818-8.63H50.631A9.9,9.9,0,0,1,32.813,25.71a9.859,9.859,0,0,1-14.061,1.976V40.546H46.91a9.9,9.9,0,0,1,18.631-4A9.878,9.878,0,0,1,80.365,33.37V27.685a9.827,9.827,0,0,1-6.073,2.1m-8.752,4.546a11.11,11.11,0,0,0-19.71,5.006H19.964V29.879a10.955,10.955,0,0,0,4.861,1.115,11.154,11.154,0,0,0,7.988-3.406,11.1,11.1,0,0,0,18.825-5.224H63.456A11.166,11.166,0,0,0,71.1,30.522a11.223,11.223,0,0,0-5.564,3.806m13.612-3.139a10.276,10.276,0,0,0-1.661-.655,11.583,11.583,0,0,0,1.661-.667Zm-4.861,19.9a9.919,9.919,0,0,1-8.752-5.273,9.9,9.9,0,0,1-18.57-3.358H18.752v14.5a9.827,9.827,0,0,1,6.073-2.1,9.933,9.933,0,0,1,9.867,8.958H46.922a9.913,9.913,0,0,1,19.734,0H80.365V49a9.827,9.827,0,0,1-6.073,2.1m4.861,11.515H67.7a11.122,11.122,0,0,0-21.819,0H35.734A11.081,11.081,0,0,0,24.825,53.65a10.966,10.966,0,0,0-4.861,1.127v-11.1H45.953a11.115,11.115,0,0,0,19.588,4.364A11.1,11.1,0,0,0,74.293,52.3a10.8,10.8,0,0,0,4.861-1.127Zm-12.5,3.127a9.913,9.913,0,0,1-19.734,0H34.692a9.933,9.933,0,0,1-9.867,8.958,9.827,9.827,0,0,1-6.073-2.1v8.534H80.365V65.735Zm12.5,14.182H19.964v-5.14A10.966,10.966,0,0,0,24.825,75.9a11.081,11.081,0,0,0,10.909-8.958H45.88a11.122,11.122,0,0,0,21.819,0H79.153Zm-12.5-14.182a9.913,9.913,0,0,1-19.734,0H34.692a9.933,9.933,0,0,1-9.867,8.958,9.827,9.827,0,0,1-6.073-2.1v8.534H80.365V65.735Zm12.5,14.182H19.964v-5.14A10.966,10.966,0,0,0,24.825,75.9a11.081,11.081,0,0,0,10.909-8.958H45.88a11.122,11.122,0,0,0,21.819,0H79.153ZM74.293,51.092a9.919,9.919,0,0,1-8.752-5.273,9.9,9.9,0,0,1-18.57-3.358H18.752v14.5a9.827,9.827,0,0,1,6.073-2.1,9.933,9.933,0,0,1,9.867,8.958H46.922a9.913,9.913,0,0,1,19.734,0H80.365V49a9.827,9.827,0,0,1-6.073,2.1m4.861,11.515H67.7a11.122,11.122,0,0,0-21.819,0H35.734A11.081,11.081,0,0,0,24.825,53.65a10.966,10.966,0,0,0-4.861,1.127v-11.1H45.953a11.115,11.115,0,0,0,19.588,4.364A11.1,11.1,0,0,0,74.293,52.3a10.8,10.8,0,0,0,4.861-1.127ZM74.293,29.782a9.918,9.918,0,0,1-9.818-8.63H50.631A9.9,9.9,0,0,1,32.813,25.71a9.859,9.859,0,0,1-14.061,1.976V40.546H46.91a9.9,9.9,0,0,1,18.631-4A9.878,9.878,0,0,1,80.365,33.37V27.685a9.827,9.827,0,0,1-6.073,2.1m-8.752,4.546a11.11,11.11,0,0,0-19.71,5.006H19.964V29.879a10.955,10.955,0,0,0,4.861,1.115,11.154,11.154,0,0,0,7.988-3.406,11.1,11.1,0,0,0,18.825-5.224H63.456A11.166,11.166,0,0,0,71.1,30.522a11.223,11.223,0,0,0-5.564,3.806m13.612-3.139a10.276,10.276,0,0,0-1.661-.655,11.583,11.583,0,0,0,1.661-.667Zm-4.861-1.406a9.918,9.918,0,0,1-9.818-8.63H50.631A9.9,9.9,0,0,1,32.813,25.71a9.859,9.859,0,0,1-14.061,1.976V40.546H46.91a9.9,9.9,0,0,1,18.631-4A9.878,9.878,0,0,1,80.365,33.37V27.685a9.827,9.827,0,0,1-6.073,2.1m-8.752,4.546a11.11,11.11,0,0,0-19.71,5.006H19.964V29.879a10.955,10.955,0,0,0,4.861,1.115,11.154,11.154,0,0,0,7.988-3.406,11.1,11.1,0,0,0,18.825-5.224H63.456A11.166,11.166,0,0,0,71.1,30.522a11.223,11.223,0,0,0-5.564,3.806m13.612-3.139a10.276,10.276,0,0,0-1.661-.655,11.583,11.583,0,0,0,1.661-.667Zm-4.861,19.9a9.919,9.919,0,0,1-8.752-5.273,9.9,9.9,0,0,1-18.57-3.358H18.752v14.5a9.827,9.827,0,0,1,6.073-2.1,9.933,9.933,0,0,1,9.867,8.958H46.922a9.913,9.913,0,0,1,19.734,0H80.365V49a9.827,9.827,0,0,1-6.073,2.1m4.861,11.515H67.7a11.122,11.122,0,0,0-21.819,0H35.734A11.081,11.081,0,0,0,24.825,53.65a10.966,10.966,0,0,0-4.861,1.127v-11.1H45.953a11.115,11.115,0,0,0,19.588,4.364A11.1,11.1,0,0,0,74.293,52.3a10.8,10.8,0,0,0,4.861-1.127Zm-12.5,3.127a9.913,9.913,0,0,1-19.734,0H34.692a9.933,9.933,0,0,1-9.867,8.958,9.827,9.827,0,0,1-6.073-2.1v8.534H80.365V65.735Zm12.5,14.182H19.964v-5.14A10.966,10.966,0,0,0,24.825,75.9a11.081,11.081,0,0,0,10.909-8.958H45.88a11.122,11.122,0,0,0,21.819,0H79.153Zm-12.5-14.182a9.913,9.913,0,0,1-19.734,0H34.692a9.933,9.933,0,0,1-9.867,8.958,9.827,9.827,0,0,1-6.073-2.1v8.534H80.365V65.735Zm12.5,14.182H19.964v-5.14A10.966,10.966,0,0,0,24.825,75.9a11.081,11.081,0,0,0,10.909-8.958H45.88a11.122,11.122,0,0,0,21.819,0H79.153ZM74.293,51.092a9.919,9.919,0,0,1-8.752-5.273,9.9,9.9,0,0,1-18.57-3.358H18.752v14.5a9.827,9.827,0,0,1,6.073-2.1,9.933,9.933,0,0,1,9.867,8.958H46.922a9.913,9.913,0,0,1,19.734,0H80.365V49a9.827,9.827,0,0,1-6.073,2.1m4.861,11.515H67.7a11.122,11.122,0,0,0-21.819,0H35.734A11.081,11.081,0,0,0,24.825,53.65a10.966,10.966,0,0,0-4.861,1.127v-11.1H45.953a11.115,11.115,0,0,0,19.588,4.364A11.1,11.1,0,0,0,74.293,52.3a10.8,10.8,0,0,0,4.861-1.127ZM74.293,29.782a9.918,9.918,0,0,1-9.818-8.63H50.631A9.9,9.9,0,0,1,32.813,25.71a9.859,9.859,0,0,1-14.061,1.976V40.546H46.91a9.9,9.9,0,0,1,18.631-4A9.878,9.878,0,0,1,80.365,33.37V27.685a9.827,9.827,0,0,1-6.073,2.1m-8.752,4.546a11.11,11.11,0,0,0-19.71,5.006H19.964V29.879a10.955,10.955,0,0,0,4.861,1.115,11.154,11.154,0,0,0,7.988-3.406,11.1,11.1,0,0,0,18.825-5.224H63.456A11.166,11.166,0,0,0,71.1,30.522a11.223,11.223,0,0,0-5.564,3.806m13.612-3.139a10.276,10.276,0,0,0-1.661-.655,11.583,11.583,0,0,0,1.661-.667Zm-4.861-1.406a9.918,9.918,0,0,1-9.818-8.63H50.631A9.9,9.9,0,0,1,32.813,25.71a9.859,9.859,0,0,1-14.061,1.976V40.546H46.91a9.9,9.9,0,0,1,18.631-4A9.878,9.878,0,0,1,80.365,33.37V27.685a9.827,9.827,0,0,1-6.073,2.1m-8.752,4.546a11.11,11.11,0,0,0-19.71,5.006H19.964V29.879a10.955,10.955,0,0,0,4.861,1.115,11.154,11.154,0,0,0,7.988-3.406,11.1,11.1,0,0,0,18.825-5.224H63.456A11.166,11.166,0,0,0,71.1,30.522a11.223,11.223,0,0,0-5.564,3.806m13.612-3.139a10.276,10.276,0,0,0-1.661-.655,11.583,11.583,0,0,0,1.661-.667Zm-4.861,19.9a9.919,9.919,0,0,1-8.752-5.273,9.9,9.9,0,0,1-18.57-3.358H18.752v14.5a9.827,9.827,0,0,1,6.073-2.1,9.933,9.933,0,0,1,9.867,8.958H46.922a9.913,9.913,0,0,1,19.734,0H80.365V49a9.827,9.827,0,0,1-6.073,2.1m4.861,11.515H67.7a11.122,11.122,0,0,0-21.819,0H35.734A11.081,11.081,0,0,0,24.825,53.65a10.966,10.966,0,0,0-4.861,1.127v-11.1H45.953a11.115,11.115,0,0,0,19.588,4.364A11.1,11.1,0,0,0,74.293,52.3a10.8,10.8,0,0,0,4.861-1.127Zm-12.5,3.127a9.913,9.913,0,0,1-19.734,0H34.692a9.933,9.933,0,0,1-9.867,8.958,9.827,9.827,0,0,1-6.073-2.1v8.534H80.365V65.735Zm12.5,14.182H19.964v-5.14A10.966,10.966,0,0,0,24.825,75.9a11.081,11.081,0,0,0,10.909-8.958H45.88a11.122,11.122,0,0,0,21.819,0H79.153Zm-12.5-14.182a9.913,9.913,0,0,1-19.734,0H34.692a9.933,9.933,0,0,1-9.867,8.958,9.827,9.827,0,0,1-6.073-2.1v8.534H80.365V65.735Zm12.5,14.182H19.964v-5.14A10.966,10.966,0,0,0,24.825,75.9a11.081,11.081,0,0,0,10.909-8.958H45.88a11.122,11.122,0,0,0,21.819,0H79.153ZM74.293,51.092a9.919,9.919,0,0,1-8.752-5.273,9.9,9.9,0,0,1-18.57-3.358H18.752v14.5a9.827,9.827,0,0,1,6.073-2.1,9.933,9.933,0,0,1,9.867,8.958H46.922a9.913,9.913,0,0,1,19.734,0H80.365V49a9.827,9.827,0,0,1-6.073,2.1m4.861,11.515H67.7a11.122,11.122,0,0,0-21.819,0H35.734A11.081,11.081,0,0,0,24.825,53.65a10.966,10.966,0,0,0-4.861,1.127v-11.1H45.953a11.115,11.115,0,0,0,19.588,4.364A11.1,11.1,0,0,0,74.293,52.3a10.8,10.8,0,0,0,4.861-1.127ZM74.293,29.782a9.918,9.918,0,0,1-9.818-8.63H50.631A9.9,9.9,0,0,1,32.813,25.71a9.859,9.859,0,0,1-14.061,1.976V40.546H46.91a9.9,9.9,0,0,1,18.631-4A9.878,9.878,0,0,1,80.365,33.37V27.685a9.827,9.827,0,0,1-6.073,2.1m-8.752,4.546a11.11,11.11,0,0,0-19.71,5.006H19.964V29.879a10.955,10.955,0,0,0,4.861,1.115,11.154,11.154,0,0,0,7.988-3.406,11.1,11.1,0,0,0,18.825-5.224H63.456A11.166,11.166,0,0,0,71.1,30.522a11.223,11.223,0,0,0-5.564,3.806m13.612-3.139a10.276,10.276,0,0,0-1.661-.655,11.583,11.583,0,0,0,1.661-.667Z" transform="translate(0 0)" fill="#022e4c"/>
    </g>
  </g>
</svg>
