<svg xmlns="http://www.w3.org/2000/svg" xmlns:xlink="http://www.w3.org/1999/xlink" width="98.846" height="119.339" viewBox="0 0 98.846 119.339">
  <defs>
    <clipPath id="clip-path">
      <rect id="Rectángulo_1722" data-name="Rectángulo 1722" width="98.846" height="119.339" fill="none"/>
    </clipPath>
  </defs>
  <g id="Grupo_2857" data-name="Grupo 2857" transform="translate(0 0)">
    <g id="Grupo_2856" data-name="Grupo 2856" transform="translate(0 0)" clip-path="url(#clip-path)">
      <path id="Trazado_4046" data-name="Trazado 4046" d="M7.613,116.918H91.258a3.473,3.473,0,0,0,3.473-3.472V5.5a3.473,3.473,0,0,0-3.473-3.472H7.613A3.472,3.472,0,0,0,4.141,5.5v107.95a3.472,3.472,0,0,0,3.472,3.472" transform="translate(0.434 0.212)" fill="#f2f2f2"/>
      <path id="Trazado_4047" data-name="Trazado 4047" d="M74.379,39.642A27.619,27.619,0,1,1,46.76,12.023,27.619,27.619,0,0,1,74.379,39.642" transform="translate(2.005 1.259)" fill="#023f87"/>
      <path id="Trazado_4048" data-name="Trazado 4048" d="M35.284,18.594A16.571,16.571,0,1,1,18.712,2.023,16.572,16.572,0,0,1,35.284,18.594" transform="translate(0.224 0.212)" fill="#ffc10e"/>
      <path id="Trazado_4049" data-name="Trazado 4049" d="M98.844,7.633q.008,52.029,0,104.064c0,3.977-1.441,5.846-5.829,7.643H5.828A17.266,17.266,0,0,1,3.1,118.1,6.846,6.846,0,0,1,0,112.047Q0,81.284,0,50.521c0-1.593.593-2.491,1.779-2.767a2.189,2.189,0,0,1,2.723,1.559,6.119,6.119,0,0,1,.147,1.61q.017,30.186.011,60.368c0,2.695.689,3.389,3.366,3.389H90.789c2.7,0,3.395-.689,3.395-3.366V8.063c0-2.706-.689-3.4-3.366-3.4H45.71a8.76,8.76,0,0,1-1.277-.045,2.265,2.265,0,0,1-2.038-2.3A2.281,2.281,0,0,1,44.473.042,7.236,7.236,0,0,1,45.524,0Q68.366,0,91.213,0c4.722.006,7.631,2.909,7.631,7.631" transform="translate(0 0)" fill="#022e4c"/>
      <path id="Trazado_4050" data-name="Trazado 4050" d="M77.98,33.186A31.052,31.052,0,0,0,47.507,8.458a30.222,30.222,0,0,0-4.631.4,2.241,2.241,0,0,0-1.921,2.513,2.3,2.3,0,0,0,2.451,2c.464,0,.932-.091,1.4-.074,2.706.1,5.48-.129,8.1.4A26.276,26.276,0,0,1,72.349,48.5a24.609,24.609,0,0,1-4.6,7.85A23.839,23.839,0,0,0,55.686,46.222a27.151,27.151,0,0,0,1.61-2.2c2.237-3.795,2.306-7.839,1.074-11.917-2.214-7.332-11.715-10.134-17.7-5.355-4.349,3.468-5.282,8.71-4.01,14.036.457,1.92,1.683,3.66,2.6,5.575A23.428,23.428,0,0,0,27.5,56.372c-.22-.254-.379-.424-.519-.6A26.057,26.057,0,0,1,21.735,44.24C21.412,42.5,20.26,41.658,18.8,42c-1.31.3-1.954,1.519-1.649,3.123A30.995,30.995,0,1,0,77.98,33.186M40.893,35.57a6.746,6.746,0,0,1,13.488.051c.018.423,0,.853,0,1.327.181,2.836-.695,5.264-3.242,6.829A6.713,6.713,0,0,1,40.922,38.6a21.629,21.629,0,0,1-.029-3.027M30.969,59.739c3.575-6.518,9.049-10.031,16.5-10.252A18.274,18.274,0,0,1,64.187,59.728c-8.6,7.783-23.7,8.264-33.218.011" transform="translate(1.789 0.886)" fill="#022e4c"/>
      <path id="Trazado_4051" data-name="Trazado 4051" d="M54.693,44.713a26.7,26.7,0,0,0,1.613-2.2c2.243-3.8,2.309-7.844,1.072-11.92-2.21-7.325-11.71-10.131-17.687-5.347-4.353,3.458-5.292,8.705-4.01,14.03.453,1.922,1.679,3.657,2.6,5.579A23.39,23.39,0,0,0,26.511,54.866l3.469,3.358c3.579-6.518,9.048-10.031,16.505-10.252A18.287,18.287,0,0,1,63.2,58.214l3.568-3.37A23.777,23.777,0,0,0,54.693,44.713m-4.541-2.453a6.71,6.71,0,0,1-10.219-5.17,23.069,23.069,0,0,1-.033-3.027,6.747,6.747,0,0,1,13.489.044c.022.431,0,.851,0,1.326.188,2.839-.7,5.27-3.237,6.827" transform="translate(2.777 2.397)" fill="#fff"/>
      <path id="Trazado_4052" data-name="Trazado 4052" d="M54.693,44.713a26.7,26.7,0,0,0,1.613-2.2c2.243-3.8,2.309-7.844,1.072-11.92-2.21-7.325-11.71-10.131-17.687-5.347-4.353,3.458-5.292,8.705-4.01,14.03.453,1.922,1.679,3.657,2.6,5.579A23.39,23.39,0,0,0,26.511,54.866l3.469,3.358c3.579-6.518,9.048-10.031,16.505-10.252A18.287,18.287,0,0,1,63.2,58.214l3.568-3.37A23.777,23.777,0,0,0,54.693,44.713m-4.541-2.453a6.71,6.71,0,0,1-10.219-5.17,23.069,23.069,0,0,1-.033-3.027,6.747,6.747,0,0,1,13.489.044c.022.431,0,.851,0,1.326.188,2.839-.7,5.27-3.237,6.827" transform="translate(2.777 2.397)" fill="#fff"/>
      <path id="Trazado_4053" data-name="Trazado 4053" d="M19.225,0a19.111,19.111,0,1,0,19,19.137A19.177,19.177,0,0,0,19.225,0M19.1,33.565A14.449,14.449,0,1,1,33.567,19.128,14.5,14.5,0,0,1,19.1,33.565" transform="translate(0 0)" fill="#022e4c"/>
      <path id="Trazado_4054" data-name="Trazado 4054" d="M69.864,74.456A2.264,2.264,0,0,1,67.492,76.8c-1.706.056-3.418.017-5.124.017q-5.709.008-11.421,0h-15.5A9.165,9.165,0,0,1,34.4,76.8a2.317,2.317,0,0,1,.051-4.632c.192-.017.39-.011.582-.011H66.966c.192,0,.384-.006.582.011a2.305,2.305,0,0,1,2.316,2.288" transform="translate(3.37 7.559)" fill="#022e4c"/>
      <path id="Trazado_4055" data-name="Trazado 4055" d="M69.864,86.272a2.283,2.283,0,0,1-2.366,2.35c-1.125.051-2.254.011-3.378.011H51.067q-7.871,0-15.736,0a6.635,6.635,0,0,1-1.158-.056,2.3,2.3,0,0,1,.045-4.558,7.967,7.967,0,0,1,1.163-.045H66.611c.31,0,.621-.011.932.011a2.307,2.307,0,0,1,2.321,2.288" transform="translate(3.37 8.797)" fill="#022e4c"/>
      <path id="Trazado_4056" data-name="Trazado 4056" d="M27.755,74.528A2.288,2.288,0,1,1,25.5,72.173a2.354,2.354,0,0,1,2.254,2.355" transform="translate(2.428 7.561)" fill="#022e4c"/>
      <path id="Trazado_4057" data-name="Trazado 4057" d="M27.755,86.27a2.288,2.288,0,1,1-2.322-2.282,2.345,2.345,0,0,1,2.322,2.282" transform="translate(2.428 8.798)" fill="#022e4c"/>
      <path id="Trazado_4058" data-name="Trazado 4058" d="M4.639,37.6a2.4,2.4,0,0,1-2.35,2.27,2.31,2.31,0,0,1,.08-4.62,2.4,2.4,0,0,1,2.27,2.35" transform="translate(0.002 3.693)" fill="#022e4c"/>
      <path id="Trazado_4059" data-name="Trazado 4059" d="M26.688,15.181a6.636,6.636,0,0,1-.757.882q-4.075,4.083-8.156,8.155c-1.632,1.627-2.733,1.627-4.366.006-1.158-1.152-2.327-2.292-3.457-3.468s-1.2-2.548-.243-3.513c.994-.989,2.322-.92,3.513.226.78.746,1.508,1.541,2.328,2.377,2.35-2.35,4.6-4.6,6.845-6.84A9.483,9.483,0,0,1,23.525,12a2.247,2.247,0,0,1,2.887.209,2.288,2.288,0,0,1,.276,2.971" transform="translate(0.947 1.212)" fill="#022e4c"/>
    </g>
  </g>
</svg>
