<svg id="Grupo_2863" data-name="Grupo 2863" xmlns="http://www.w3.org/2000/svg" xmlns:xlink="http://www.w3.org/1999/xlink" width="129.701" height="129.751" viewBox="0 0 129.701 129.751">
  <defs>
    <clipPath id="clip-path">
      <rect id="Rectángulo_1727" data-name="Rectángulo 1727" width="129.701" height="129.751" fill="none"/>
    </clipPath>
  </defs>
  <g id="Grupo_2862" data-name="Grupo 2862" clip-path="url(#clip-path)">
    <path id="Trazado_4065" data-name="Trazado 4065" d="M43.7,86.453v9.11c-.791.78-1.571,1.57-2.321,2.39a1.82,1.82,0,0,0-.32,1.47c.08.3.15.61.2.9a6.464,6.464,0,0,1-1.89,6.07c-6.649,6.66-13.29,13.34-19.979,19.95a11.162,11.162,0,0,1-12.71,2.38A11.292,11.292,0,0,1,.011,117.9a10.386,10.386,0,0,1,2.93-7.08q10.3-10.425,20.719-20.75a5.939,5.939,0,0,1,4.98-1.72,9.822,9.822,0,0,1,1.551.29,1.737,1.737,0,0,0,1.4-.12l2.131-2.07Z" fill="#ffc10e"/>
    <path id="Trazado_4066" data-name="Trazado 4066" d="M98.691,32.433h-7.9c0-.91.03-1.67,0-2.42a6.46,6.46,0,0,0-6.28-6.21q-4.515-.09-9.05,0a6.45,6.45,0,0,0-6.27,6.35c-.02.71,0,1.42,0,2.28-2.96,0-5.7-.01-8.44.01a6.492,6.492,0,0,0-6.71,6.75V43.1a11.533,11.533,0,0,0,1.6,5.78,3.893,3.893,0,0,1,.54,1.87c.04,4.59.02,9.19.03,13.78a6.462,6.462,0,0,0,6.76,6.82q17.01.03,34.04,0a6.467,6.467,0,0,0,6.76-6.82c.02-3.74.02-7.47,0-11.21-.01-2.02-.14-4.01,1.21-5.78a4.712,4.712,0,0,0,.71-2.29c.16-1.84.23-3.68.24-5.52.02-4.7-2.58-7.29-7.24-7.3m-25.18-2.05a2.144,2.144,0,0,1,2.31-2.26q4.185-.045,8.35,0a2.144,2.144,0,0,1,2.3,2.27c.03.62,0,1.25,0,1.96H73.5c0-.72-.02-1.35.01-1.97" fill="#ffc10e"/>
    <path id="Trazado_4067" data-name="Trazado 4067" d="M125.011,28.613a2.255,2.255,0,0,0-.11-.22,56.064,56.064,0,0,0-4.96-8.27c-.06-.09-.13-.18-.2-.27a50.343,50.343,0,0,0-4.79-5.49,49.752,49.752,0,0,0-74.59,65.48c-2.95,2.93-5.82,5.84-8.77,8.68a1.74,1.74,0,0,1-1.4.12,9.789,9.789,0,0,0-1.55-.29,56.7,56.7,0,0,0,12.62,11.97c-.05-.29-.12-.6-.2-.9a1.82,1.82,0,0,1,.32-1.47c1.34-1.46,2.78-2.83,4.17-4.23,1.45-1.46,2.88-2.93,4.3-4.37a49.762,49.762,0,0,0,75.16-60.74m-8.26,21.18a36.76,36.76,0,1,1-36.6-36.82,36.821,36.821,0,0,1,36.6,36.82" fill="#023f87"/>
    <path id="Trazado_4068" data-name="Trazado 4068" d="M125.01,28.613a2.255,2.255,0,0,0-.11-.22,48.575,48.575,0,0,0-4.96-8.27c-.059-.09-.129-.18-.2-.27a50.45,50.45,0,0,0-4.79-5.49,49.752,49.752,0,0,0-74.59,65.48c-2.24,2.22-4.43,4.43-6.64,6.61l-2.131,2.07a1.737,1.737,0,0,1-1.4.12,9.8,9.8,0,0,0-1.551-.29,5.94,5.94,0,0,0-4.98,1.72q-10.423,10.32-20.72,20.75A10.4,10.4,0,0,0,.01,117.9a11.3,11.3,0,0,0,6.671,10.82,11.16,11.16,0,0,0,12.709-2.38c6.691-6.61,13.331-13.29,19.981-19.95a6.469,6.469,0,0,0,1.89-6.07c-.05-.29-.121-.6-.2-.9a1.82,1.82,0,0,1,.32-1.47c.75-.82,1.529-1.61,2.32-2.39.619-.61,1.24-1.22,1.849-1.84,1.45-1.46,2.881-2.93,4.3-4.37a49.761,49.761,0,0,0,75.16-60.74m-88.829,74.84q-9.93,9.945-19.861,19.86a6.847,6.847,0,0,1-4.56,2.1,7.125,7.125,0,0,1-6.879-4.29,6.7,6.7,0,0,1,1.54-7.7c4.46-4.52,8.96-8.99,13.45-13.47,2.129-2.14,4.25-4.28,6.4-6.4,1.27-1.25,2.369-1.26,3.619-.03q3.182,3.135,6.3,6.31c1.24,1.25,1.24,2.37-.01,3.62m7.52-14.48c-1.98,1.98-3.99,4-5.99,5.99-.9-.93-1.961-2.02-2.9-2.99l5.52-5.52c.989-1,1.989-2,2.989-3,.9.93,1.951,2.03,2.891,3.01l-2.51,2.51m36.18,6.17A45.41,45.41,0,1,1,125.4,49.723a45.445,45.445,0,0,1-45.519,45.42" fill="#022e4c"/>
    <path id="Trazado_4069" data-name="Trazado 4069" d="M79.881,8.653A41.118,41.118,0,0,0,38.911,49.7c0,22.58,18.36,41.09,40.77,41.11a41.081,41.081,0,1,0,.2-82.16m-.13,77.84a36.761,36.761,0,1,1,37-36.7,36.779,36.779,0,0,1-37,36.7" fill="#022e4c"/>
    <path id="Trazado_4070" data-name="Trazado 4070" d="M98.69,32.433h-7.9c0-.91.03-1.67,0-2.42a6.46,6.46,0,0,0-6.28-6.21q-4.515-.09-9.05,0a6.45,6.45,0,0,0-6.27,6.35c-.02.71,0,1.42,0,2.28-2.96,0-5.7-.01-8.44.01a6.492,6.492,0,0,0-6.71,6.75V43.1a11.533,11.533,0,0,0,1.6,5.78,3.893,3.893,0,0,1,.54,1.87c.04,4.59.02,9.19.03,13.78a6.462,6.462,0,0,0,6.76,6.82q17.01.03,34.04,0a6.467,6.467,0,0,0,6.76-6.82c.02-3.74.02-7.47,0-11.21-.01-2.02-.14-4.01,1.21-5.78a4.712,4.712,0,0,0,.71-2.29c.16-1.84.23-3.68.24-5.52.02-4.7-2.58-7.29-7.24-7.3m-25.18-2.05a2.144,2.144,0,0,1,2.31-2.26q4.185-.045,8.35,0a2.144,2.144,0,0,1,2.3,2.27c.03.62,0,1.25,0,1.96H73.5c0-.72-.02-1.35.01-1.97m25.94,32.47c0,3.95-.23,4.18-4.2,4.18H63.65c-2.49,0-3.12-.63-3.12-3.1V53.463c2.16.27,4.25.53,6.14.77a32.76,32.76,0,0,0,1.16,3.59c.15.33.94.52,1.44.52,1.46.02,1.9-.88,2.14-4.19H88.57c.24,3.32.68,4.28,2.14,4.19,2.8-.16,2.13-2.45,2.28-4.07,2.18-.27,4.25-.53,6.46-.81Zm2.16-19.89a6.508,6.508,0,0,1-6.82,6.77H93.38a32.016,32.016,0,0,0-1.25-3.77c-.14-.33-.93-.51-1.44-.52-1.44,0-1.86.86-2.13,4.2H71.41c-.25-1.67.52-4.19-2.27-4.15-2.69.03-1.98,2.46-2.16,4.1-5.31.78-8.61-2-8.61-7.18,0-.99-.01-1.98,0-2.97.02-1.93.77-2.68,2.72-2.68H86.21c4.22,0,8.46-.01,12.69,0,1.94,0,2.69.76,2.71,2.69q.015,1.755,0,3.51" fill="#022e4c"/>
    <line id="Línea_1" data-name="Línea 1" x1="15.646" y2="15.369" transform="translate(14.878 104.268)" fill="none" stroke="#fff" stroke-linecap="round" stroke-width="4"/>
  </g>
</svg>
