<svg id="Grupo_9731" data-name="Grupo 9731" xmlns="http://www.w3.org/2000/svg" xmlns:xlink="http://www.w3.org/1999/xlink" width="150.912" height="20" viewBox="0 0 150.912 20">
  <defs>
    <linearGradient id="linear-gradient" x1="0.866" y1="0.482" x2="0.013" y2="0.378" gradientUnits="objectBoundingBox">
      <stop offset="0" stop-color="#fff"/>
      <stop offset="0.559" stop-color="#fff"/>
      <stop offset="0.626" stop-color="#fdfcfb"/>
      <stop offset="0.683" stop-color="#f7f4f1"/>
      <stop offset="0.737" stop-color="#eee6df"/>
      <stop offset="0.787" stop-color="#e1d2c6"/>
      <stop offset="0.837" stop-color="#d1b8a6"/>
      <stop offset="0.885" stop-color="#bd997f"/>
      <stop offset="0.932" stop-color="#a57451"/>
      <stop offset="0.978" stop-color="#894b1c"/>
      <stop offset="1" stop-color="#7b3400"/>
    </linearGradient>
    <linearGradient id="linear-gradient-3" x1="0.509" y1="1.018" x2="0.375" y2="0.058" xlink:href="#linear-gradient"/>
    <linearGradient id="linear-gradient-5" x1="0.361" y1="0.855" x2="0.448" y2="0.277" gradientUnits="objectBoundingBox">
      <stop offset="0" stop-color="#fff"/>
      <stop offset="0.559" stop-color="#fff"/>
      <stop offset="0.626" stop-color="#fbfcfc"/>
      <stop offset="0.683" stop-color="#f1f2f4"/>
      <stop offset="0.736" stop-color="#dfe3e7"/>
      <stop offset="0.787" stop-color="#c6cdd5"/>
      <stop offset="0.837" stop-color="#a6b1bd"/>
      <stop offset="0.885" stop-color="#7f8ea0"/>
      <stop offset="0.932" stop-color="#51657e"/>
      <stop offset="0.978" stop-color="#1c3757"/>
      <stop offset="1" stop-color="#001e42"/>
    </linearGradient>
    <clipPath id="clip-path">
      <rect id="Rectángulo_548" data-name="Rectángulo 548" width="150.912" height="20" fill="none"/>
    </clipPath>
    <clipPath id="clip-path-3">
      <rect id="Rectángulo_531" data-name="Rectángulo 531" width="12.032" height="9.898" fill="url(#linear-gradient)"/>
    </clipPath>
    <clipPath id="clip-path-4">
      <path id="Trazado_99" data-name="Trazado 99" d="M622.336.778,615.66,7.819l2.679,2.857,9.354-9.9Z" transform="translate(-615.66 -0.778)" fill="url(#linear-gradient)"/>
    </clipPath>
    <clipPath id="clip-path-6">
      <path id="Trazado_101" data-name="Trazado 101" d="M622.336,54.679l-6.676-7.041,2.679-2.857,9.354,9.9Z" transform="translate(-615.66 -44.781)" fill="url(#linear-gradient-3)"/>
    </clipPath>
    <clipPath id="clip-path-7">
      <rect id="Rectángulo_535" data-name="Rectángulo 535" width="8.727" height="12.767" fill="url(#linear-gradient-5)"/>
    </clipPath>
    <clipPath id="clip-path-8">
      <path id="Trazado_102" data-name="Trazado 102" d="M505.142,13.545h4.748L503.535.778l-2.373,4.79Z" transform="translate(-501.162 -0.778)" fill="url(#linear-gradient-5)"/>
    </clipPath>
    <clipPath id="clip-path-10">
      <path id="Trazado_104" data-name="Trazado 104" d="M142.85,13.545H147.6L141.243.778l-2.372,4.79Z" transform="translate(-138.871 -0.778)" fill="url(#linear-gradient-5)"/>
    </clipPath>
    <clipPath id="clip-path-12">
      <path id="Trazado_106" data-name="Trazado 106" d="M313.671,13.545h4.748L312.065.778l-2.373,4.79Z" transform="translate(-309.692 -0.778)" fill="url(#linear-gradient-5)"/>
    </clipPath>
    <clipPath id="clip-path-13">
      <rect id="Rectángulo_541" data-name="Rectángulo 541" width="4.357" height="15.877" fill="url(#linear-gradient-5)"/>
    </clipPath>
    <clipPath id="clip-path-14">
      <path id="Trazado_107" data-name="Trazado 107" d="M421.81,16.655h4.357V.778L421.81,5.394Z" transform="translate(-421.81 -0.778)" fill="url(#linear-gradient-5)"/>
    </clipPath>
    <clipPath id="clip-path-15">
      <rect id="Rectángulo_544" data-name="Rectángulo 544" width="4.446" height="10.374" fill="url(#linear-gradient-5)"/>
    </clipPath>
    <clipPath id="clip-path-16">
      <path id="Trazado_109" data-name="Trazado 109" d="M208.365,20.753h4.446v4.9l-4.446,5.471Z" transform="translate(-208.365 -20.753)" fill="url(#linear-gradient-5)"/>
    </clipPath>
    <clipPath id="clip-path-17">
      <rect id="Rectángulo_546" data-name="Rectángulo 546" width="7.391" height="3.752" fill="none"/>
    </clipPath>
    <clipPath id="clip-path-18">
      <path id="Trazado_110" data-name="Trazado 110" d="M19.982,3.068V.015a40,40,0,0,1,6.929.363l.461,3.374s-2.459-1.027-7.391-.684" transform="translate(-19.982 0)" fill="none"/>
    </clipPath>
    <linearGradient id="linear-gradient-22" x1="-1.317" y1="2.858" x2="-1.267" y2="2.858" gradientUnits="objectBoundingBox">
      <stop offset="0" stop-color="#001e42"/>
      <stop offset="0.909" stop-color="#fff"/>
      <stop offset="1" stop-color="#fff"/>
    </linearGradient>
  </defs>
  <g id="Grupo_702" data-name="Grupo 702" clip-path="url(#clip-path)">
    <g id="Grupo_701" data-name="Grupo 701" transform="translate(0 0)">
      <g id="Grupo_700" data-name="Grupo 700" clip-path="url(#clip-path)">
        <path id="Trazado_94" data-name="Trazado 94" d="M20.647,6.806A8.292,8.292,0,0,0,19.1,4.177a9.708,9.708,0,0,0-2.53-2.039A13.926,13.926,0,0,0,13.1.768a14.51,14.51,0,0,0-1.452-.3C11.115.378,10.571.306,10.006.247S8.863.143,8.268.114,7.088.067,6.512.067H0V19.99H4.508V3.12H6.493a25.821,25.821,0,0,1,2.888.148,12.8,12.8,0,0,1,2.335.476,9.113,9.113,0,0,1,2.016.908,6.016,6.016,0,0,1,1.516,1.319,5.525,5.525,0,0,1,.957,1.749,6.9,6.9,0,0,1,.332,2.2,6.751,6.751,0,0,1-1.012,3.841,6.274,6.274,0,0,1-2.981,2.293,13.31,13.31,0,0,1-3.652.773v3.055c.5-.036.97-.08,1.427-.135a20.687,20.687,0,0,0,3.551-.714,12.674,12.674,0,0,0,3.246-1.452,9.055,9.055,0,0,0,2.272-2.047,8.142,8.142,0,0,0,1.344-2.568,10.018,10.018,0,0,0,.441-3.015,9.206,9.206,0,0,0-.525-3.148" transform="translate(0 -0.052)" fill="#023f87"/>
        <path id="Trazado_95" data-name="Trazado 95" d="M461.4.778h-4.78L446.748,20.6h4.779l7.5-15.035,4.161,8.34,1.547,3.116,1.787,3.578h4.745Z" transform="translate(-345.971 -0.602)" fill="#023f87"/>
        <path id="Trazado_96" data-name="Trazado 96" d="M353.9.778h-1l-6.71,7.041-6.6-7.041h-5.466l4.357,4.616,7.711,8.169L353.9,5.394V20.6h4.357V.778Z" transform="translate(-258.751 -0.602)" fill="#023f87"/>
        <path id="Trazado_97" data-name="Trazado 97" d="M576.781,10.676l-2.715,2.885L567.39,20.6H562l9.354-9.9L562,.778h5.466L574.1,7.819Z" transform="translate(-435.223 -0.603)" fill="#023f87"/>
        <path id="Trazado_98" data-name="Trazado 98" d="M622.335.778l-6.676,7.041,2.679,2.857,9.354-9.9Z" transform="translate(-476.78 -0.602)" fill="#ffc10e"/>
        <g id="Grupo_664" data-name="Grupo 664" transform="translate(138.879 0.175)" opacity="0.8" style="mix-blend-mode: multiply;isolation: isolate">
          <g id="Grupo_663" data-name="Grupo 663">
            <g id="Grupo_662" data-name="Grupo 662" clip-path="url(#clip-path-3)">
              <g id="Grupo_661" data-name="Grupo 661" transform="translate(0 0)">
                <g id="Grupo_660" data-name="Grupo 660" clip-path="url(#clip-path-4)">
                  <rect id="Rectángulo_530" data-name="Rectángulo 530" width="15.185" height="15.572" transform="translate(-4.786 6.21) rotate(-52.38)" fill="url(#linear-gradient)"/>
                </g>
              </g>
            </g>
          </g>
        </g>
        <path id="Trazado_100" data-name="Trazado 100" d="M622.335,54.679l-6.676-7.041,2.679-2.857,9.354,9.9Z" transform="translate(-476.78 -34.679)" fill="#da2128"/>
        <g id="Grupo_669" data-name="Grupo 669" transform="translate(138.879 10.102)" opacity="0.9" style="mix-blend-mode: multiply;isolation: isolate">
          <g id="Grupo_668" data-name="Grupo 668">
            <g id="Grupo_667" data-name="Grupo 667" clip-path="url(#clip-path-3)">
              <g id="Grupo_666" data-name="Grupo 666" transform="translate(0 0)">
                <g id="Grupo_665" data-name="Grupo 665" clip-path="url(#clip-path-6)">
                  <rect id="Rectángulo_532" data-name="Rectángulo 532" width="15.573" height="15.185" transform="translate(-4.786 3.688) rotate(-37.62)" fill="url(#linear-gradient-3)"/>
                </g>
              </g>
            </g>
          </g>
        </g>
        <g id="Grupo_674" data-name="Grupo 674" transform="translate(113.051 0.175)" opacity="0.5" style="mix-blend-mode: multiply;isolation: isolate">
          <g id="Grupo_673" data-name="Grupo 673">
            <g id="Grupo_672" data-name="Grupo 672" clip-path="url(#clip-path-7)">
              <g id="Grupo_671" data-name="Grupo 671" transform="translate(0 0)">
                <g id="Grupo_670" data-name="Grupo 670" clip-path="url(#clip-path-8)">
                  <rect id="Rectángulo_534" data-name="Rectángulo 534" width="15.207" height="15.191" transform="matrix(0.705, -0.709, 0.709, 0.705, -6.384, 6.417)" fill="url(#linear-gradient-5)"/>
                </g>
              </g>
            </g>
          </g>
        </g>
        <path id="Trazado_103" data-name="Trazado 103" d="M99.1.778h-4.78L84.456,20.6h4.779l7.5-15.035,4.161,8.34,1.547,3.116,1.787,3.578h4.745Z" transform="translate(-65.405 -0.602)" fill="#023f87"/>
        <g id="Grupo_679" data-name="Grupo 679" transform="translate(31.326 0.175)" opacity="0.5" style="mix-blend-mode: multiply;isolation: isolate">
          <g id="Grupo_678" data-name="Grupo 678">
            <g id="Grupo_677" data-name="Grupo 677" clip-path="url(#clip-path-7)">
              <g id="Grupo_676" data-name="Grupo 676" transform="translate(0 0)">
                <g id="Grupo_675" data-name="Grupo 675" clip-path="url(#clip-path-10)">
                  <rect id="Rectángulo_536" data-name="Rectángulo 536" width="15.207" height="15.191" transform="translate(-6.384 6.417) rotate(-45.151)" fill="url(#linear-gradient-5)"/>
                </g>
              </g>
            </g>
          </g>
        </g>
        <path id="Trazado_105" data-name="Trazado 105" d="M269.925.778h-4.779L255.278,20.6h4.779l7.5-15.035,4.161,8.34,1.547,3.116,1.787,3.578h4.745Z" transform="translate(-197.693 -0.602)" fill="#023f87"/>
        <g id="Grupo_684" data-name="Grupo 684" transform="translate(69.86 0.175)" opacity="0.5" style="mix-blend-mode: multiply;isolation: isolate">
          <g id="Grupo_683" data-name="Grupo 683">
            <g id="Grupo_682" data-name="Grupo 682" clip-path="url(#clip-path-7)">
              <g id="Grupo_681" data-name="Grupo 681" transform="translate(0 0)">
                <g id="Grupo_680" data-name="Grupo 680" clip-path="url(#clip-path-12)">
                  <rect id="Rectángulo_538" data-name="Rectángulo 538" width="15.207" height="15.191" transform="translate(-6.384 6.417) rotate(-45.152)" fill="url(#linear-gradient-5)"/>
                </g>
              </g>
            </g>
          </g>
        </g>
        <g id="Grupo_689" data-name="Grupo 689" transform="translate(95.151 0.175)" opacity="0.5" style="mix-blend-mode: multiply;isolation: isolate">
          <g id="Grupo_688" data-name="Grupo 688">
            <g id="Grupo_687" data-name="Grupo 687" clip-path="url(#clip-path-13)">
              <g id="Grupo_686" data-name="Grupo 686" transform="translate(0 0)">
                <g id="Grupo_685" data-name="Grupo 685" clip-path="url(#clip-path-14)">
                  <rect id="Rectángulo_540" data-name="Rectángulo 540" width="4.357" height="15.877" fill="url(#linear-gradient-5)"/>
                </g>
              </g>
            </g>
          </g>
        </g>
        <rect id="Rectángulo_542" data-name="Rectángulo 542" width="4.446" height="19.69" transform="translate(47.003 0.235)" fill="#023f87"/>
        <path id="Trazado_108" data-name="Trazado 108" d="M189.106,1.043V5.489H167.885l-2.432-4.446Z" transform="translate(-128.13 -0.808)" fill="#023f87"/>
        <g id="Grupo_694" data-name="Grupo 694" transform="translate(47.003 4.681)" opacity="0.5" style="mix-blend-mode: multiply;isolation: isolate">
          <g id="Grupo_693" data-name="Grupo 693">
            <g id="Grupo_692" data-name="Grupo 692" clip-path="url(#clip-path-15)">
              <g id="Grupo_691" data-name="Grupo 691" transform="translate(0 0)">
                <g id="Grupo_690" data-name="Grupo 690" clip-path="url(#clip-path-16)">
                  <rect id="Rectángulo_543" data-name="Rectángulo 543" width="4.722" height="10.49" transform="translate(-0.277 0.007) rotate(-1.532)" fill="url(#linear-gradient-5)"/>
                </g>
              </g>
            </g>
          </g>
        </g>
        <g id="Grupo_699" data-name="Grupo 699" transform="translate(4.508 0)" opacity="0.5" style="mix-blend-mode: multiply;isolation: isolate">
          <g id="Grupo_698" data-name="Grupo 698">
            <g id="Grupo_697" data-name="Grupo 697" clip-path="url(#clip-path-17)">
              <g id="Grupo_696" data-name="Grupo 696" transform="translate(0 0)">
                <g id="Grupo_695" data-name="Grupo 695" clip-path="url(#clip-path-18)">
                  <rect id="Rectángulo_545" data-name="Rectángulo 545" width="4.515" height="7.708" transform="matrix(0.09, -0.996, 0.996, 0.09, -0.346, 3.721)" fill="url(#linear-gradient-22)"/>
                </g>
              </g>
            </g>
          </g>
        </g>
      </g>
    </g>
  </g>
</svg>
